<svg width="262" height="95" viewBox="0 0 262 95" fill="none" xmlns="http://www.w3.org/2000/svg">
<g filter="url(#filter0_d_338_233)">
<path d="M19.4911 1.50005L129.23 1.5L197.545 1.5L213.833 1.50002C237.397 1.50005 256.5 20.6027 256.5 44.167C256.5 66.9946 237.995 85.5 215.167 85.4999L139.649 85.4998L19.8501 85.4998C4.93591 85.4998 0.900696 64.9585 14.7066 59.3166C28.4385 53.7049 28.1756 34.2644 14.6145 28.5499C7.58197 25.5865 4.9942 18.8511 6.08742 12.7763C7.17854 6.71312 11.8951 1.50005 19.4911 1.50005Z" stroke="url(#paint0_linear_338_233)" stroke-width="3" shape-rendering="crispEdges"/>
<path d="M19.4911 1.50005L129.23 1.5L197.545 1.5L213.833 1.50002C237.397 1.50005 256.5 20.6027 256.5 44.167C256.5 66.9946 237.995 85.5 215.167 85.4999L139.649 85.4998L19.8501 85.4998C4.93591 85.4998 0.900696 64.9585 14.7066 59.3166C28.4385 53.7049 28.1756 34.2644 14.6145 28.5499C7.58197 25.5865 4.9942 18.8511 6.08742 12.7763C7.17854 6.71312 11.8951 1.50005 19.4911 1.50005Z" stroke="url(#paint1_linear_338_233)" stroke-opacity="0.2" stroke-width="3" shape-rendering="crispEdges"/>
</g>
<defs>
<filter id="filter0_d_338_233" x="0.347656" y="0" width="261.652" height="95" filterUnits="userSpaceOnUse" color-interpolation-filters="sRGB">
<feFlood flood-opacity="0" result="BackgroundImageFix"/>
<feColorMatrix in="SourceAlpha" type="matrix" values="0 0 0 0 0 0 0 0 0 0 0 0 0 0 0 0 0 0 127 0" result="hardAlpha"/>
<feOffset dy="4"/>
<feGaussianBlur stdDeviation="2"/>
<feComposite in2="hardAlpha" operator="out"/>
<feColorMatrix type="matrix" values="0 0 0 0 0 0 0 0 0 0 0 0 0 0 0 0 0 0 0.25 0"/>
<feBlend mode="normal" in2="BackgroundImageFix" result="effect1_dropShadow_338_233"/>
<feBlend mode="normal" in="SourceGraphic" in2="effect1_dropShadow_338_233" result="shape"/>
</filter>
<linearGradient id="paint0_linear_338_233" x1="245" y1="80.5" x2="13.5" y2="6.05828e-06" gradientUnits="userSpaceOnUse">
<stop offset="0.354167" stop-color="#24FF00" stop-opacity="0.47"/>
<stop offset="0.677083"/>
</linearGradient>
<linearGradient id="paint1_linear_338_233" x1="258" y1="43.5" x2="-28.5" y2="3.17291e-06" gradientUnits="userSpaceOnUse">
<stop offset="0.357543" stop-color="#24FF00" stop-opacity="0.47"/>
<stop offset="0.810329"/>
</linearGradient>
</defs>
</svg>
