<svg width="2623" height="341" viewBox="0 0 2623 341" fill="none" xmlns="http://www.w3.org/2000/svg">
<path fill-rule="evenodd" clip-rule="evenodd" d="M-1356 98.1911V340.801L3459 313.974V313.717V307V40.7167V27.7171V27.2987C3442.61 27.6388 3426.36 30.3678 3410.75 35.4049L3138.24 123.341C3058.86 148.955 2975.97 161.999 2892.56 161.999H2887.48C2810.18 161.999 2733.29 150.795 2659.2 128.737L2430.09 60.5244C2356.01 38.4662 2278.34 27.2625 2201.04 27.2625C2138.55 27.2625 2075.65 34.5847 2014.86 49.0795L1790.81 102.504C1628.74 141.15 1458.55 126.92 1305.14 61.8954C1121.55 -15.9245 915.132 -20.5302 728.25 49.0232L644.107 80.3394C500.84 133.661 345.294 144.818 195.883 112.489L-31.1697 63.3622C-141.16 39.5636 -254.933 39.2382 -365.058 62.4075L-756.957 144.86C-811.119 156.255 -866.743 161.999 -922.091 161.999C-971.625 161.999 -1021.43 157.398 -1070.12 148.256L-1281.28 108.602C-1306.03 103.957 -1330.96 100.483 -1356 98.1911Z" fill="#24FF00" fill-opacity="0.47"/>
</svg>
