<svg width="997" height="950" viewBox="0 0 997 950" fill="none" xmlns="http://www.w3.org/2000/svg">
<line x1="643.999" y1="231.162" x2="643.999" y2="949.661" stroke="black" stroke-width="4"/>
<line x1="287" y1="949.161" x2="996.011" y2="949.161" stroke="black"/>
<path d="M643.509 795.339L770.909 776.507C798.754 772.391 824.134 756.133 840.647 731.834L897.186 648.638" stroke="black" stroke-width="4"/>
<path d="M402.194 475.041L480.74 591.421C496.281 614.449 519.626 629.672 545.382 633.574L641.674 648.165" stroke="black" stroke-width="4"/>
<path d="M402.194 143.257L480.74 259.637C496.281 282.665 519.626 297.888 545.382 301.79L641.674 316.381" stroke="black" stroke-width="4"/>
<path d="M26.3436 30.4304L100.552 142.715C116.484 166.822 140.892 182.551 167.723 186.002L261.001 198" stroke="black" stroke-width="4"/>
<path d="M244.956 145.188L263.518 208.444C280.128 265.05 336.099 295.912 386.857 276.453L469.328 244.836" stroke="black" stroke-width="4"/>
<path d="M204.647 290.315L371.192 350.392C393.949 358.6 418.688 358.338 440.866 349.653L559.25 303.293" stroke="black" stroke-width="4"/>
<path d="M643.508 470.148L770.908 451.315C798.753 447.199 824.133 430.941 840.646 406.642L897.185 323.446" stroke="black" stroke-width="4"/>
<path d="M643.51 251.702L770.91 232.869C798.755 228.753 824.135 212.495 840.648 188.196L897.187 105.001" stroke="black" stroke-width="3"/>
</svg>
