<svg width="1964" height="1659" viewBox="0 0 1964 1659" fill="none" xmlns="http://www.w3.org/2000/svg">
<g clip-path="url(#clip0_401_82)">
<path d="M1708.64 1486.17L1705.48 1473.83L1669.81 1482.98L1672.97 1495.32L1708.64 1486.17Z" fill="#64C29C"/>
<path d="M1690.63 1503.48L1687.47 1491.15L1651.8 1500.3L1654.96 1512.63L1690.63 1503.48Z" fill="#64C29C"/>
<path d="M1672.15 1521.68L1668.99 1509.34L1633.32 1518.49L1636.48 1530.83L1672.15 1521.68Z" fill="#64C29C"/>
<path d="M1653.78 1540L1650.62 1527.66L1614.96 1536.81L1618.11 1549.15L1653.78 1540Z" fill="#64C29C"/>
<path d="M1097.9 1622.26L642.673 1360.2C611.878 1342.77 615.893 1311.27 651.373 1291.16L1093.21 1035.8C1128.69 1015.02 1182.25 1013.01 1213.04 1031.11L1668.27 1293.18C1699.07 1310.6 1695.05 1342.1 1659.57 1362.21L1217.73 1617.57C1182.25 1637.68 1128.69 1639.69 1097.9 1622.26Z" fill="#A0DDC4"/>
<path d="M1631.45 1028.43L1552.46 982.848L1842.33 815.285C1855.72 807.243 1855.72 794.51 1842.33 786.468L1546.43 615.553C1533.04 607.511 1510.28 607.511 1496.89 615.553L1207.02 783.116L1128.02 737.538L1417.89 569.976C1474.8 537.135 1567.85 537.135 1624.76 569.976L1921.32 741.562C1978.23 774.402 1978.23 828.022 1921.32 861.534L1631.45 1028.43Z" fill="#004338"/>
<path d="M1758.65 1048.53C1758.65 1006.31 1733.21 957.379 1701.74 939.284L1176.22 635.661C1162.17 627.619 1149.45 626.947 1139.41 632.309L512.129 997.594L1118.65 1455.37L1736.56 1096.12C1738.56 1095.45 1740.57 1094.11 1741.91 1092.77C1751.95 1084.73 1758.65 1069.31 1758.65 1048.53Z" fill="#C9EEE0"/>
<path d="M1117.98 1455.37L1735.89 1096.12C1737.9 1095.45 1739.9 1094.11 1741.24 1092.77C1751.29 1084.73 1757.98 1069.31 1757.98 1048.53C1757.98 1028.43 1751.95 1006.98 1742.58 987.539L1037.65 1395.05L1117.98 1455.37Z" fill="#004338"/>
<path d="M1078.48 1453.36L552.966 1149.74C521.504 1131.65 496.062 1082.72 496.062 1040.49C496.062 998.265 521.504 978.829 552.966 997.594L1078.48 1301.22C1109.95 1319.31 1135.39 1368.24 1135.39 1410.47C1135.39 1452.02 1109.95 1471.46 1078.48 1453.36Z" fill="#64C29C"/>
<path d="M1000.16 1350.81L937.228 1314.62C931.204 1311.27 925.848 1301.22 925.848 1293.18C925.848 1284.46 931.204 1281.11 937.228 1284.46L1000.16 1320.65C1006.18 1324.01 1011.54 1334.06 1011.54 1342.1C1011.54 1350.81 1006.18 1354.84 1000.16 1350.81Z" fill="white"/>
<path d="M693.423 438.014C682.039 421.928 665.972 407.183 643.211 395.118C627.816 386.405 609.74 379.032 591.665 373L512 419.917L620.45 480.91L693.423 438.014Z" fill="#C9EEE0"/>
<path d="M202.729 770.424C186.662 770.424 171.934 766.405 158.545 759.03C127.081 740.935 109.675 704.739 109.006 657.152C108.336 570.692 168.587 464.124 243.566 419.886C284.402 395.757 324.569 392.406 356.035 410.503C369.421 417.875 380.802 429.269 388.835 443.344C399.549 462.11 405.573 484.899 405.573 512.378C406.244 598.842 345.993 705.41 271.013 749.645C247.582 763.053 224.151 770.424 202.729 770.424ZM311.85 431.28C295.783 431.28 278.377 436.642 259.632 448.036C193.357 486.912 140.47 580.744 141.139 657.152C141.139 692.677 153.19 719.485 174.612 731.551C196.034 743.616 224.821 740.264 255.616 722.166C321.891 683.293 374.778 589.457 374.107 513.049C374.107 492.274 369.421 473.505 361.388 460.101C356.035 450.047 349.34 443.344 340.636 438.653C331.933 433.291 322.561 431.28 311.85 431.28Z" fill="#004338"/>
<path d="M1024.93 1132.98L913.131 1205.37L858.908 1196.66L992.129 1132.31L1024.93 1132.98Z" fill="#64C29C"/>
<path d="M889.704 1498.27C889.704 1498.27 857.571 1482.18 837.486 1506.31C817.405 1530.44 789.287 1588.08 788.62 1626.29C787.949 1665.16 819.414 1662.48 838.157 1653.1C856.904 1643.71 911.127 1564.63 914.474 1549.21C917.822 1533.79 910.46 1512.34 905.103 1508.32C900.417 1504.3 889.704 1498.27 889.704 1498.27Z" fill="#004338"/>
<path d="M897.066 1490.23L898.405 1523.74C898.405 1531.11 895.057 1537.81 889.033 1541.17C883.676 1544.52 874.976 1546.53 864.263 1545.19C840.163 1541.17 837.487 1534.46 836.145 1500.95C834.139 1467.43 897.066 1490.23 897.066 1490.23Z" fill="#64C29C"/>
<path d="M771.881 1433.93C771.881 1433.93 739.745 1417.84 719.664 1441.97C699.579 1466.1 671.461 1523.74 670.794 1561.94C670.123 1600.82 701.588 1598.14 720.331 1588.75C739.078 1579.37 793.301 1500.28 796.648 1484.87C799.996 1469.45 792.633 1448 787.277 1443.98C782.591 1439.96 771.881 1433.93 771.881 1433.93Z" fill="#004338"/>
<path d="M778.574 1425.88L779.912 1459.4C779.912 1466.77 776.565 1473.47 770.541 1476.82C765.184 1480.17 756.48 1482.18 745.77 1480.84C721.671 1476.82 718.99 1470.12 717.652 1436.61C716.314 1403.1 778.574 1425.88 778.574 1425.88Z" fill="#64C29C"/>
<path d="M1066.44 811.934C1057.07 656.436 898.404 834.722 898.404 834.722L789.954 941.294L692.214 1048.53C672.8 1069.31 664.096 1098.13 668.114 1126.28L707.613 1427.89C709.618 1442.64 722.341 1454.03 737.069 1453.36C741.084 1453.36 746.441 1452.69 751.797 1452.02C787.277 1446.66 784.597 1413.15 784.597 1413.15L777.235 1130.97L982.758 1006.98C982.087 1007.65 1075.81 967.435 1066.44 811.934Z" fill="#C9EEE0"/>
<path d="M855.562 1078.02L826.106 1067.3C825.434 1067.3 776.564 1114.89 776.564 1130.97L798.655 1138.35L853.552 1084.73L855.562 1078.02Z" fill="#64C29C"/>
<path d="M1024.93 1132.98C1024.93 1132.98 1146.77 1063.28 1161.5 1033.79C1167.52 1022.39 1176.23 1010.33 1140.75 992.9L978.072 1108.86L985.434 1149.07L1024.93 1132.98Z" fill="#64C29C"/>
<path d="M1184.26 872.257C1174.22 716.76 1016.23 895.045 1016.23 895.045L907.775 1001.61L810.039 1108.85C790.621 1129.63 781.921 1158.45 785.935 1186.6L825.434 1488.22C827.443 1502.96 840.162 1514.35 854.89 1513.69C858.905 1513.69 864.262 1513.02 869.618 1512.34C905.098 1506.98 902.422 1473.47 902.422 1473.47L895.056 1191.29L1100.58 1067.3C1100.58 1067.3 1193.63 1014.35 1184.26 872.257Z" fill="#C9EEE0"/>
<path d="M1090.54 372.252C1211.04 421.85 1208.36 493.568 1208.36 493.568C1208.36 493.568 1184.93 754.295 1192.97 928.558C1196.31 1001.62 806.69 1006.98 864.932 812.605C933.216 583.38 907.778 398.394 939.911 370.241C971.376 342.091 1059.74 359.518 1090.54 372.252Z" fill="#004338"/>
<path d="M1129.36 435.254C1123.34 459.385 1091.21 472.789 1057.73 464.075C1024.26 455.362 1002.84 428.554 1008.86 404.423C1014.89 380.296 1047.02 366.89 1080.49 375.603C1113.97 384.315 1135.39 411.127 1129.36 435.254Z" fill="#FFC2B0"/>
<path d="M1078.49 472.788C1071.12 472.788 1064.43 472.117 1057.07 470.108C1039.66 465.417 1024.93 456.704 1014.89 443.967C1004.85 431.234 1000.83 416.488 1004.18 403.084C1011.54 375.603 1046.35 360.858 1082.5 370.241C1099.91 374.933 1114.64 383.647 1124.68 396.38C1135.39 409.117 1138.74 423.859 1135.39 437.267C1129.36 458.713 1105.94 472.788 1078.49 472.788ZM1060.41 378.953C1038.32 378.953 1019.58 389.676 1014.89 405.765C1012.21 415.817 1015.56 426.54 1023.59 436.596C1032.29 446.648 1045.01 454.69 1059.74 458.713C1089.87 466.756 1118.65 455.361 1124.01 433.915C1126.69 423.859 1123.34 413.136 1115.31 403.084C1106.6 393.028 1093.88 384.986 1079.16 380.967C1072.46 379.624 1066.44 378.953 1060.41 378.953Z" fill="white"/>
<path d="M1042.34 366.89C1042.34 366.89 1043.68 371.582 1041 409.788C1040.33 421.85 1082.5 433.244 1093.21 421.85C1103.93 411.127 1099.91 399.732 1102.59 358.847C1105.27 318.632 1042.34 366.89 1042.34 366.89Z" fill="#FFC2B0"/>
<path d="M1102.59 359.518C1102.59 359.518 1092.55 397.052 1041.67 411.794L1042.34 377.615L1102.59 359.518Z" fill="#EA9C92"/>
<path d="M1134.72 263.001C1147.44 312.599 1117.98 362.868 1068.45 375.603C1018.91 388.338 968.697 358.846 955.978 309.248C943.256 259.65 972.712 209.382 1022.25 196.647C1071.79 183.913 1122 213.403 1134.72 263.001Z" fill="#FFC2B0"/>
<path d="M1066.44 289.812C1066.44 289.812 1015.56 311.93 980.081 311.93C944.601 311.93 952.634 282.439 952.634 282.439L1057.74 267.694L1066.44 289.812Z" fill="#EA9C92"/>
<path d="M970.04 295.844C970.04 295.844 1014.22 277.077 1053.05 285.12C1062.42 287.131 1070.46 291.822 1076.48 299.195C1078.49 301.876 1081.17 303.887 1083.85 304.557C1090.54 305.898 1101.92 277.747 1115.31 277.077C1128.7 276.407 1137.4 285.79 1126.69 303.887C1115.98 321.313 1119.33 341.421 1124.68 344.102C1130.04 346.783 1183.59 305.898 1136.06 212.062C1088.53 118.226 968.698 168.495 949.955 187.932C949.955 187.932 930.541 205.359 914.475 189.943C913.804 187.933 895.728 322.654 970.04 295.844Z" fill="#4A4A4A"/>
<path d="M1140.74 683.919V754.295C1140.74 762.337 1137.4 770.379 1131.37 775.741L986.771 907.782L1003.51 933.252L1194.3 794.51C1203 787.806 1209.03 777.754 1210.37 767.027L1223.09 644.375L1140.74 683.919Z" fill="#FFC2B0"/>
<path d="M1198.32 458.042C1198.32 458.042 1242.5 524.399 1258.57 697.994C1258.57 697.994 1183.59 722.121 1141.42 708.717C1098.57 694.642 1198.32 458.042 1198.32 458.042Z" fill="#004338"/>
<path d="M1132.71 541.826C1132.71 541.826 1115.31 633.648 1114.64 677.215C1114.64 689.281 1121.33 700.004 1132.71 704.027V541.826Z" fill="#004338"/>
<path d="M1095.22 999.604L1063.09 995.585L856.895 876.28C850.2 872.257 838.82 872.928 830.787 877.618L684.847 962.069L665.434 959.388V978.825C665.434 981.509 666.772 983.519 670.119 985.529L903.756 1120.92C910.451 1124.94 921.832 1124.27 929.865 1119.58L1089.2 1027.75C1093.21 1025.07 1095.89 1022.39 1095.22 1019.04V999.604Z" fill="#007948"/>
<path d="M940.578 923.867L925.85 915.153H764.512L684.847 960.731L665.434 958.05V977.486C665.434 980.167 666.772 982.177 670.119 984.187L903.76 1119.58C907.104 1121.59 912.46 1122.26 917.146 1122.26L940.578 923.867Z" fill="#007948"/>
<path d="M674.81 960.06L666.105 958.721V978.158C666.105 980.839 667.444 982.848 670.791 984.858L674.81 987.539V960.06Z" fill="#64C29C"/>
<path d="M906.438 1120.92C912.461 1123.6 921.837 1122.93 928.532 1119.58V1086.74H906.438V1120.92Z" fill="#007948"/>
<path d="M904.427 1100.81L670.787 965.421C664.092 961.402 664.763 954.698 672.796 950.675L832.125 858.853C839.491 854.159 851.539 854.159 858.234 857.511L1091.87 992.9C1098.57 996.923 1097.9 1003.63 1089.87 1007.65L930.536 1099.47C922.503 1104.16 911.122 1104.83 904.427 1100.81Z" fill="white"/>
<path d="M900.412 1080.04L706.271 967.435C700.918 964.083 701.585 958.721 707.613 954.698L792.63 906.44C798.658 903.088 808.696 902.417 814.053 905.769L1008.2 1018.37C1013.55 1021.73 1012.88 1027.09 1006.86 1031.11L921.836 1079.36C915.141 1083.39 905.769 1083.39 900.412 1080.04Z" fill="#C9EEE0"/>
<path d="M840.162 854.163L837.482 870.248C835.476 884.323 835.476 897.727 838.824 911.802L841.5 925.877C842.838 933.919 849.533 939.952 857.566 941.294C863.59 942.633 869.618 937.942 870.285 931.909L874.304 897.055C874.304 897.055 883.004 908.45 887.694 908.45C891.708 908.45 883.004 873.599 872.965 854.163C863.59 835.393 840.162 854.163 840.162 854.163Z" fill="#FFC2B0"/>
<path d="M919.827 597.455L895.056 647.055C889.032 659.117 885.685 671.853 885.014 684.586L874.304 854.83L841.501 854.162L825.434 663.14C824.763 657.107 825.434 651.074 826.102 645.713L843.51 549.197L919.827 597.455Z" fill="#FFC2B0"/>
<path d="M896.395 1113.55L876.981 1088.08L670.791 968.773C664.096 964.754 658.739 954.698 658.739 945.985V777.083L646.691 761.666L658.072 754.966C660.081 753.623 662.758 753.623 666.105 755.637L899.742 891.026C906.437 895.046 911.794 905.101 911.794 913.815V1098.13C911.794 1102.82 909.784 1106.84 907.108 1108.19L896.395 1113.55Z" fill="#007948"/>
<path d="M753.803 1017.03L739.075 1008.32L658.739 868.238V776.412L646.691 760.998L658.072 754.295C660.081 752.956 662.758 752.956 666.105 754.966L899.742 890.355C903.09 892.365 906.437 896.388 908.446 900.407L753.803 1017.03Z" fill="#007948"/>
<path d="M652.048 768.37L646.691 761.666L658.072 754.966C660.081 753.623 662.758 753.623 666.105 755.637L670.12 758.318L652.048 768.37Z" fill="#64C29C"/>
<path d="M901.751 892.365C907.108 896.388 911.126 904.43 911.793 911.801L889.032 925.205L878.322 906.44L901.751 892.365Z" fill="#007948"/>
<path d="M888.36 897.059L654.724 761.666C648.029 757.646 642.672 761.666 642.672 771.05V955.369C642.672 964.082 648.029 974.138 654.724 978.158L888.36 1113.55C895.055 1117.57 900.412 1113.55 900.412 1104.17V919.848C900.412 911.134 895.055 901.078 888.36 897.059Z" fill="#004338"/>
<path d="M1003.51 932.58L999.494 940.623C995.476 949.336 988.114 957.379 980.077 962.069L956.648 976.144C949.282 980.838 940.582 980.838 933.216 976.815C933.216 976.815 932.549 976.815 932.549 976.144C925.183 971.454 924.515 960.73 930.539 954.698L954.639 929.899C954.639 929.899 941.249 940.623 937.234 935.932C934.554 932.58 950.624 917.834 962.672 917.163C974.724 916.496 986.772 907.111 986.772 907.111L1003.51 932.58Z" fill="#FFC2B0"/>
<path d="M941.92 369.57C941.92 369.57 852.884 466.756 817.4 555.23C817.4 555.23 847.528 610.192 922.506 631.638C996.814 653.088 941.92 369.57 941.92 369.57Z" fill="#004338"/>
<path d="M905.099 626.276L919.828 486.864L885.686 617.563C891.709 620.244 898.404 623.595 905.099 626.276Z" fill="#004338"/>
<path d="M554.975 136.322C518.156 136.322 488.029 106.161 488.029 69.2977C488.029 32.4341 518.156 2.27295 554.975 2.27295C591.797 2.27295 621.921 32.4341 621.921 69.2977C621.921 106.161 591.797 136.322 554.975 136.322ZM554.975 17.0184C526.19 17.0184 502.757 40.4771 502.757 69.2977C502.757 98.1183 526.19 121.577 554.975 121.577C583.764 121.577 607.192 98.1183 607.192 69.2977C607.192 40.4771 583.764 17.0184 554.975 17.0184Z" fill="#C9EEE0"/>
<path d="M1907.94 618.901C1881.83 618.901 1860.41 597.455 1860.41 571.314C1860.41 545.178 1881.83 523.728 1907.94 523.728C1934.05 523.728 1955.47 545.178 1955.47 571.314C1955.47 597.455 1934.05 618.901 1907.94 618.901ZM1907.94 538.474C1889.86 538.474 1875.13 553.22 1875.13 571.314C1875.13 589.413 1889.86 604.159 1907.94 604.159C1926.01 604.159 1940.74 589.413 1940.74 571.314C1940.74 553.22 1926.01 538.474 1907.94 538.474Z" fill="#64C29C"/>
<path d="M352.132 1477.49L319.998 1411.81L385.603 1379.64L417.739 1445.32L352.132 1477.49ZM339.412 1418.51L358.826 1458.05L398.325 1438.62L378.908 1399.07L339.412 1418.51Z" fill="#64C29C"/>
<path d="M1302.75 460.723L1270.62 395.042L1336.22 362.869L1368.36 428.554L1302.75 460.723ZM1290.03 401.742L1309.45 441.287L1348.94 421.85L1329.53 382.305L1290.03 401.742Z" fill="#64C29C"/>
<path d="M263.929 1077.1L233.891 1091.89L248.659 1121.96L278.697 1107.17L263.929 1077.1Z" fill="#64C29C"/>
<path d="M1444.67 104.822L1265.26 1.60449C1261.92 -0.406252 1258.57 -0.406252 1255.89 0.934242L1238.48 10.9879C1238.48 10.9879 1245.85 13.669 1250.54 15.6797V146.378C1250.54 157.102 1257.23 169.166 1265.26 173.858L1436.64 273.054V288.47L1454.05 278.416C1456.73 276.406 1458.74 272.384 1458.74 267.022V132.303C1458.74 121.579 1452.71 109.514 1444.67 104.822Z" fill="#2E2E2E"/>
<path d="M1426.6 286.46L1247.86 183.241C1239.82 178.549 1233.13 166.485 1233.13 155.761V22.3814C1233.13 11.6574 1239.82 6.96569 1247.86 11.6574L1426.6 114.876C1434.63 119.568 1441.33 131.632 1441.33 142.356V275.736C1441.33 286.46 1434.63 291.151 1426.6 286.46Z" fill="#4A4A4A"/>
<path d="M1308.11 136.995C1308.11 145.038 1302.75 147.719 1296.06 143.697C1289.36 139.676 1284.01 130.292 1284.01 122.919C1284.01 114.876 1289.36 112.195 1296.06 116.217C1302.75 120.238 1308.11 129.622 1308.11 136.995Z" fill="white"/>
<path d="M1344.26 158.443C1344.26 166.486 1338.9 169.167 1332.21 165.145C1325.51 161.124 1320.16 151.74 1320.16 144.368C1320.16 136.325 1325.51 133.644 1332.21 137.665C1338.9 141.017 1344.26 150.4 1344.26 158.443Z" fill="white"/>
<path d="M1381.08 179.889C1381.08 187.932 1375.72 190.613 1369.02 186.592C1362.33 182.57 1356.98 173.187 1356.98 165.815C1356.98 157.772 1362.33 155.091 1369.02 159.113C1375.72 162.464 1381.08 171.847 1381.08 179.889Z" fill="white"/>
<path d="M206.86 1238.21L31.4641 1137.01C28.1168 1135 24.7696 1135 22.0918 1136.34L5.35547 1145.72C5.35547 1145.72 12.7195 1148.4 17.4056 1150.41V1278.43C17.4056 1289.15 23.4307 1301.22 31.4641 1305.24L199.496 1402.42V1417.17L216.902 1407.11C219.58 1405.11 221.588 1401.75 221.588 1395.72V1265.03C220.919 1254.97 214.894 1242.9 206.86 1238.21Z" fill="#64C29C"/>
<path d="M189.455 1417.17L14.0585 1315.29C6.02507 1310.6 0 1298.54 0 1288.48V1157.78C0 1147.06 6.02507 1142.37 14.0585 1147.06L189.455 1248.27C197.488 1252.96 203.513 1265.03 203.513 1275.08V1405.78C204.183 1416.5 197.488 1421.19 189.455 1417.17Z" fill="#004338"/>
<path d="M72.969 1270.39C72.969 1277.76 67.6135 1281.11 60.9189 1277.09C54.2247 1273.07 48.8691 1264.35 48.8691 1256.31C48.8691 1248.94 54.2247 1245.59 60.9189 1249.61C67.6135 1253.63 72.969 1263.01 72.969 1270.39Z" fill="white"/>
<path d="M109.12 1291.16C109.12 1298.54 103.764 1301.89 97.0697 1297.87C90.3751 1293.84 85.0195 1285.13 85.0195 1277.09C85.0195 1269.72 90.3751 1266.36 97.0697 1270.39C103.764 1274.41 109.12 1283.79 109.12 1291.16Z" fill="white"/>
<path d="M145.273 1311.94C145.273 1319.32 139.917 1322.66 133.222 1318.65C126.528 1314.62 121.172 1305.91 121.172 1297.87C121.172 1290.49 126.528 1287.14 133.222 1291.16C139.917 1295.19 145.273 1304.57 145.273 1311.94Z" fill="white"/>
</g>
<defs>
<clipPath id="clip0_401_82">
<rect width="1964" height="1659" fill="white"/>
</clipPath>
</defs>
</svg>
