<?xml version="1.0" encoding="UTF-8" standalone="no"?>
<svg
   xmlns:dc="http://purl.org/dc/elements/1.1/"
   xmlns:cc="http://creativecommons.org/ns#"
   xmlns:rdf="http://www.w3.org/1999/02/22-rdf-syntax-ns#"
   xmlns:svg="http://www.w3.org/2000/svg"
   xmlns="http://www.w3.org/2000/svg"
   id="svg156"
   version="1.1"
   fill="none"
   viewBox="0 0 521 440"
   height="440"
   width="521">
  <metadata
     id="metadata162">
    <rdf:RDF>
      <cc:Work
         rdf:about="">
        <dc:format>image/svg+xml</dc:format>
        <dc:type
           rdf:resource="http://purl.org/dc/dcmitype/StillImage" />
      </cc:Work>
    </rdf:RDF>
  </metadata>
  <defs
     id="defs160" />
  <path
     id="path2"
     fill="#64C29C"
     d="M453.26 394.162L452.422 390.89L442.96 393.316L443.798 396.588L453.26 394.162Z" />
  <path
     id="path4"
     fill="#64C29C"
     d="M448.481 398.754L447.644 395.482L438.182 397.909L439.019 401.18L448.481 398.754Z" />
  <path
     id="path6"
     fill="#64C29C"
     d="M443.579 403.579L442.742 400.307L433.28 402.734L434.117 406.006L443.579 403.579Z" />
  <path
     id="path8"
     fill="#64C29C"
     d="M438.707 408.438L437.869 405.166L428.408 407.594L429.245 410.866L438.707 408.438Z" />
  <path
     id="path10"
     fill="#A0DDC4"
     d="M242.231 97.84L152.726 150.28C129.995 143.347 101.048 145.481 82.0457 156.68C58.7816 170.367 58.9591 192.232 82.4008 205.387C87.7285 208.409 93.5889 210.72 99.9821 212.32C104.422 213.386 109.217 214.275 114.012 214.808C132.658 216.586 152.548 213.386 166.755 204.853C184.159 194.721 188.421 179.967 179.719 167.523L192.151 160.235L191.795 152.413L204.759 152.236L204.404 144.947L217.368 144.77L217.013 137.481L229.977 137.303L229.622 130.015L242.586 129.837L242.231 122.549L256.083 122.371L260.345 119.883L264.962 100.506L242.231 97.84ZM116.32 198.276C110.282 201.831 100.515 201.831 94.2993 198.454C88.2613 195.076 88.0837 189.388 94.1217 185.833C100.16 182.278 109.927 182.278 116.143 185.655C122.358 189.033 122.358 194.721 116.32 198.276Z" />
  <path
     id="path12"
     fill="#A0DDC4"
     d="M291.245 430.257L170.485 360.752C162.316 356.13 163.381 347.775 172.793 342.442L290.002 274.715C299.414 269.204 313.621 268.671 321.79 273.47L442.55 342.976C450.72 347.597 449.654 355.952 440.242 361.285L323.033 429.013C313.621 434.346 299.414 434.879 291.245 430.257Z" />
  <path
     id="path14"
     fill="#64C29C"
     d="M432.783 272.759L411.828 260.671L488.723 216.23C492.275 214.097 492.275 210.72 488.723 208.587L410.229 163.257C406.677 161.124 400.639 161.124 397.088 163.257L320.192 207.698L299.236 195.61L376.132 151.169C391.227 142.459 415.912 142.459 431.007 151.169L509.679 196.677C524.774 205.387 524.774 219.608 509.679 228.496L432.783 272.759Z" />
  <path
     id="path16"
     fill="#C9EEE0"
     d="M466.525 278.092C466.525 266.893 459.777 253.916 451.43 249.117L312.023 168.59C308.294 166.457 304.919 166.279 302.256 167.701L135.855 264.582L296.75 385.994L460.665 290.713C461.197 290.535 461.73 290.18 462.085 289.824C464.749 287.691 466.525 283.603 466.525 278.092Z" />
  <path
     id="path18"
     fill="#007948"
     d="M296.573 385.994L460.487 290.713C461.02 290.535 461.553 290.18 461.908 289.824C464.572 287.691 466.348 283.602 466.348 278.092C466.348 272.759 464.749 267.07 462.263 261.915L275.262 369.996L296.573 385.994Z" />
  <path
     id="path20"
     fill="#64C29C"
     d="M286.095 385.461L146.688 304.934C138.342 300.135 131.593 287.158 131.593 275.959C131.593 264.76 138.342 259.605 146.688 264.582L286.095 345.109C294.442 349.908 301.19 362.885 301.19 374.084C301.19 385.105 294.442 390.261 286.095 385.461Z" />
  <path
     id="path22"
     fill="white"
     d="M265.317 358.263L248.623 348.664C247.025 347.775 245.604 345.109 245.604 342.976C245.604 340.665 247.025 339.776 248.623 340.665L265.317 350.264C266.915 351.153 268.336 353.819 268.336 355.952C268.336 358.263 266.915 359.33 265.317 358.263Z" />
  <path
     id="path24"
     fill="#007948"
     d="M139.407 74.5528L167.999 90.907L197.301 73.664L197.123 66.1979L196.946 66.3757V65.8424H209.91L209.732 58.3764H222.519V51.0881L235.305 50.9103L235.127 43.622L247.914 43.4442V36.156L261.411 35.9782L265.673 33.4895L270.29 14.2911V6.82501L267.981 13.9355L247.381 11.2691L139.407 74.5528Z" />
  <path
     id="path26"
     fill="#C9EEE0"
     d="M167.999 83.4408L197.124 66.1978L196.769 58.3763H209.733L209.555 50.9102H222.519L222.164 43.6219L235.128 43.4442L234.773 36.1559L247.914 35.9781L247.559 28.6898L261.411 28.5121L265.673 26.0234L270.29 6.82501L247.381 3.80304L139.23 67.0866L167.999 83.4408Z" />
  <path
     id="path28"
     fill="#C9EEE0"
     d="M187.357 72.0639C184.337 67.7975 180.075 63.8868 174.037 60.687C169.953 58.3761 165.158 56.4207 160.363 54.8209L139.23 67.2643L167.999 83.4407L187.357 72.0639Z" />
  <path
     id="path30"
     fill="#64C29C"
     d="M269.58 10.0249L270.291 6.82522L266.384 6.29193L175.103 59.7985L179.898 62.6427L269.58 10.0249Z" />
  <path
     id="path32"
     fill="#D3D0CF"
     d="M70.1477 98.1953L69.7925 87.5301L73.1675 94.6402L70.1477 98.1953Z" />
  <path
     id="path34"
     fill="#007948"
     d="M87.7293 122.016C111.171 135.348 148.997 134.992 172.084 121.482C183.805 114.728 189.488 105.839 189.31 96.9512L188.955 85.7521L187.001 87.8853C184.337 82.3746 179.187 77.0418 171.551 72.7755C148.109 59.4432 110.283 59.7988 87.1965 73.3087C64.2876 86.8187 64.4652 108.684 87.7293 122.016ZM121.649 102.284C127.687 105.662 127.864 111.35 121.826 114.905C115.788 118.461 106.021 118.461 99.8053 115.083C93.7673 111.706 93.5897 106.017 99.8053 102.462C105.666 98.7288 115.433 98.7288 121.649 102.284Z" />
  <path
     id="path36"
     fill="#F2F2F2"
     d="M87.5512 111.528C110.993 124.86 148.819 124.504 171.906 110.994C195.17 97.3066 194.992 75.4417 171.551 62.2872C148.109 48.9549 110.283 49.3105 87.196 62.8205C63.932 76.3305 64.1095 98.1954 87.5512 111.528ZM121.293 91.6182C127.331 94.9957 127.509 100.684 121.471 104.239C115.433 107.795 105.665 107.795 99.4496 104.417C93.4116 101.04 93.234 95.3512 99.2721 91.796C105.31 88.2407 115.255 88.0629 121.293 91.6182Z" />
  <path
     id="path38"
     fill="#64C29C"
     d="M114.545 117.216C109.395 118.105 103.712 117.394 99.6278 115.083C95.188 112.594 93.9449 109.039 95.8984 105.839L85.2431 97.4845C85.2431 97.4845 79.7378 91.2628 74.2326 85.0411C65.7084 97.4845 70.1481 112.239 87.7293 122.194C95.3656 126.638 104.067 129.126 113.835 130.548L114.545 117.216Z" />
  <path
     id="path40"
     fill="#C9EEE0"
     d="M87.5512 111.528C92.8789 114.55 98.7393 116.861 105.132 118.46C109.572 119.527 114.367 120.416 119.162 120.949C137.809 122.727 157.699 119.527 171.906 110.994C195.17 97.3066 194.992 75.4417 171.551 62.2872C148.109 48.9549 110.283 49.3105 87.196 62.8205C63.932 76.3305 64.1095 98.1954 87.5512 111.528ZM121.293 91.6181C127.331 94.9957 127.509 100.684 121.471 104.239C115.433 107.795 105.665 107.795 99.4496 104.417C93.4116 101.04 93.234 95.3512 99.2721 91.7959C105.31 88.2406 115.255 88.0629 121.293 91.6181Z" />
  <path
     id="path42"
     fill="#007948"
     d="M76.3628 87.352C77.4283 80.5969 82.5784 73.8419 91.4578 68.6867C112.058 56.5986 145.8 56.2431 166.578 68.1534C176.878 74.0196 182.206 81.8413 182.206 89.663C183.626 80.7747 178.476 71.7087 166.755 64.9536C145.978 53.0433 112.236 53.3988 91.6354 65.4869C81.5129 71.3531 76.3628 79.3526 76.3628 87.352Z" />
  <path
     id="path44"
     fill="#007948"
     d="M62.3336 183.877C58.0715 183.877 54.1646 182.811 50.6128 180.855C42.2661 176.056 37.6488 166.456 37.4712 153.835C37.2936 130.904 53.2766 102.64 73.1666 90.9073C83.9995 84.5078 94.6548 83.619 103.002 88.4186C106.553 90.374 109.572 93.3959 111.703 97.1289C114.545 102.106 116.143 108.15 116.143 115.438C116.321 138.37 100.338 166.634 80.4477 178.366C74.2321 181.922 68.0165 183.877 62.3336 183.877ZM91.2807 93.9292C87.0185 93.9292 82.4012 95.3513 77.4287 98.3733C59.8474 108.684 45.8179 133.57 45.9955 153.835C45.9955 163.257 49.1921 170.367 54.8749 173.567C60.5578 176.767 68.1941 175.878 76.3632 171.078C93.9445 160.768 107.974 135.881 107.796 115.616C107.796 110.106 106.553 105.128 104.422 101.573C103.002 98.9066 101.226 97.1289 98.917 95.8846C96.6083 94.4625 94.1221 93.9292 91.2807 93.9292Z" />
  <path
     id="path46"
     fill="#C9EEE0"
     d="M102.291 112.594L118.984 116.683L121.293 104.239C115.255 107.795 105.488 107.795 99.272 104.417L102.291 112.594Z" />
  <path
     id="path48"
     fill="#C9EEE0"
     d="M87.5508 111.527C92.8784 114.55 98.7389 116.86 105.132 118.46C109.572 119.527 114.367 120.416 119.162 120.949C137.808 122.727 157.698 119.527 171.905 110.994L104.067 109.394L87.5508 111.527Z" />
  <path
     id="path50"
     fill="#007948"
     d="M112.591 120.06C112.591 120.06 105.31 118.816 97.8511 116.327V126.815C101.403 128.06 107.263 129.837 112.413 130.548C127.864 132.504 112.591 120.06 112.591 120.06Z" />
  <path
     id="path52"
     fill="#64C29C"
     d="M101.758 117.394C98.7389 116.505 95.3647 115.26 92.1681 113.838C83.1111 109.572 94.6544 125.393 94.6544 125.393C94.6544 125.393 97.6734 126.637 101.936 127.882V117.394H101.758Z" />
  <path
     id="path54"
     fill="#64C29C"
     d="M271.889 300.49L242.231 319.689L227.847 317.378L263.187 300.312L271.889 300.49Z" />
  <path
     id="path56"
     fill="#007948"
     d="M236.016 397.371C236.016 397.371 227.492 393.104 222.164 399.504C216.837 405.904 209.378 421.191 209.201 431.324C209.023 441.634 217.37 440.923 222.342 438.435C227.315 435.946 241.699 414.97 242.587 410.881C243.475 406.792 241.522 401.104 240.101 400.037C238.858 398.971 236.016 397.371 236.016 397.371Z" />
  <path
     id="path58"
     fill="#64C29C"
     d="M237.969 395.238L238.324 404.126C238.324 406.081 237.436 407.859 235.838 408.748C234.417 409.637 232.109 410.17 229.267 409.815C222.874 408.748 222.164 406.97 221.808 398.082C221.276 389.193 237.969 395.238 237.969 395.238Z" />
  <path
     id="path60"
     fill="#007948"
     d="M204.761 380.306C204.761 380.306 196.236 376.039 190.909 382.439C185.581 388.838 178.122 404.126 177.945 414.259C177.767 424.569 186.114 423.858 191.086 421.369C196.059 418.881 210.443 397.904 211.331 393.816C212.219 389.727 210.266 384.039 208.845 382.972C207.602 381.906 204.761 380.306 204.761 380.306Z" />
  <path
     id="path62"
     fill="#64C29C"
     d="M206.536 378.173L206.891 387.061C206.891 389.016 206.003 390.794 204.405 391.683C202.984 392.571 200.675 393.105 197.834 392.749C191.441 391.683 190.73 389.905 190.375 381.017C190.02 372.129 206.536 378.173 206.536 378.173Z" />
  <path
     id="path64"
     fill="#C9EEE0"
     d="M282.899 215.341C280.413 174.1 238.324 221.385 238.324 221.385L209.555 249.65L183.627 278.092C178.477 283.603 176.168 291.246 177.234 298.712L187.712 378.706C188.244 382.617 191.619 385.639 195.526 385.461C196.591 385.461 198.012 385.283 199.433 385.105C208.845 383.683 208.134 374.795 208.134 374.795L206.181 299.957L260.701 267.071C260.523 267.248 285.385 256.583 282.899 215.341Z" />
  <path
     id="path66"
     fill="#64C29C"
     d="M226.959 285.913L219.145 283.069C218.967 283.069 206.003 295.69 206.003 299.957L211.863 301.912L226.426 287.691L226.959 285.913Z" />
  <path
     id="path68"
     fill="#64C29C"
     d="M271.889 300.49C271.889 300.49 304.21 282.003 308.117 274.181C309.715 271.159 312.024 267.959 302.612 263.337L259.458 294.091L261.411 304.756L271.889 300.49Z" />
  <path
     id="path70"
     fill="#C9EEE0"
     d="M314.154 231.34C311.491 190.099 269.58 237.384 269.58 237.384L240.81 265.648L214.883 294.09C209.732 299.601 207.424 307.245 208.489 314.711L218.967 394.705C219.5 398.615 222.874 401.637 226.781 401.46C227.846 401.46 229.267 401.282 230.688 401.104C240.1 399.682 239.39 390.794 239.39 390.794L237.436 315.955L291.956 283.069C291.956 283.069 316.641 269.026 314.154 231.34Z" />
  <path
     id="path72"
     fill="#C0CCEB"
     d="M289.293 98.7287C321.259 111.883 320.548 130.904 320.548 130.904C320.548 130.904 314.333 200.054 316.464 246.272C317.352 265.649 213.995 267.071 229.445 215.519C247.559 154.724 240.811 105.662 249.335 98.1954C257.682 90.7294 281.124 95.3512 289.293 98.7287Z" />
  <path
     id="path74"
     fill="#FFC2B0"
     d="M299.592 115.438C297.994 121.838 289.47 125.393 280.59 123.082C271.711 120.771 266.028 113.661 267.626 107.261C269.225 100.862 277.749 97.3065 286.628 99.6175C295.508 101.928 301.19 109.039 299.592 115.438Z" />
  <path
     id="path76"
     fill="white"
     d="M286.096 125.393C284.142 125.393 282.366 125.215 280.413 124.682C275.795 123.438 271.888 121.127 269.225 117.749C266.561 114.372 265.495 110.461 266.383 106.906C268.337 99.6175 277.571 95.7067 287.161 98.1954C291.778 99.4397 295.685 101.751 298.349 105.128C301.191 108.506 302.079 112.416 301.191 115.972C299.592 121.66 293.377 125.393 286.096 125.393ZM281.301 100.506C275.44 100.506 270.468 103.35 269.225 107.617C268.514 110.283 269.402 113.127 271.533 115.794C273.842 118.46 277.216 120.593 281.123 121.66C289.115 123.793 296.751 120.771 298.172 115.083C298.882 112.416 297.994 109.572 295.863 106.906C293.554 104.239 290.18 102.106 286.273 101.04C284.497 100.684 282.899 100.506 281.301 100.506Z" />
  <path
     id="path78"
     fill="#FFC2B0"
     d="M276.506 97.3066C276.506 97.3066 276.861 98.551 276.151 108.684C275.973 111.883 287.161 114.905 290.002 111.883C292.844 109.039 291.778 106.017 292.489 95.1735C293.199 84.5076 276.506 97.3066 276.506 97.3066Z" />
  <path
     id="path80"
     fill="#EA9C92"
     d="M292.489 95.3512C292.489 95.3512 289.825 105.306 276.328 109.216L276.506 100.151L292.489 95.3512Z" />
  <path
     id="path82"
     fill="#FFC2B0"
     d="M301.013 69.7532C304.387 82.9076 296.573 96.2398 283.432 99.6173C270.29 102.995 256.971 95.1732 253.597 82.0188C250.222 68.8644 258.036 55.5322 271.178 52.1547C284.32 48.7773 297.639 56.5988 301.013 69.7532Z" />
  <path
     id="path84"
     fill="#EA9C92"
     d="M282.9 76.8639C282.9 76.8639 269.403 82.73 259.991 82.73C250.579 82.73 252.71 74.9086 252.71 74.9086L280.591 70.9979L282.9 76.8639Z" />
  <path
     id="path86"
     fill="#4A4A4A"
     d="M257.327 78.4637C257.327 78.4637 269.047 73.4863 279.348 75.6195C281.834 76.1528 283.965 77.3972 285.563 79.3526C286.096 80.0636 286.806 80.5969 287.517 80.7747C289.293 81.1302 292.312 73.6641 295.863 73.4863C299.415 73.3086 301.724 75.7973 298.882 80.5969C296.041 85.2188 296.929 90.5518 298.35 91.2629C299.77 91.9739 313.977 81.1302 301.369 56.2431C288.76 31.3559 256.971 44.6883 251.999 49.8435C251.999 49.8435 246.849 54.4654 242.587 50.3768C242.409 49.8435 237.614 85.5744 257.327 78.4637Z" />
  <path
     id="path88"
     fill="#FFC2B0"
     d="M302.611 181.389V200.054C302.611 202.187 301.724 204.32 300.125 205.742L261.766 240.762L266.206 247.517L316.819 210.72C319.127 208.942 320.726 206.276 321.081 203.431L324.455 170.901L302.611 181.389Z" />
  <path
     id="path90"
     fill="#C0CCEB"
     d="M317.884 121.482C317.884 121.482 329.605 139.081 333.867 185.122C333.867 185.122 313.977 191.521 302.789 187.966C291.423 184.233 317.884 121.482 317.884 121.482Z" />
  <path
     id="path92"
     fill="#A1AED0"
     d="M300.48 143.703C300.48 143.703 295.863 168.056 295.686 179.611C295.686 182.811 297.461 185.655 300.48 186.722V143.703Z" />
  <path
     id="path94"
     fill="#007948"
     d="M290.535 265.115L282.011 264.049L227.313 232.407C225.537 231.34 222.518 231.518 220.387 232.762L181.673 255.16L176.523 254.449V259.604C176.523 260.316 176.878 260.849 177.766 261.382L239.744 297.29C241.52 298.357 244.539 298.179 246.67 296.935L288.937 272.581C290.002 271.87 290.712 271.159 290.535 270.27V265.115Z" />
  <path
     id="path96"
     fill="#007948"
     d="M249.512 245.028L245.605 242.717H202.806L181.673 254.805L176.523 254.094V259.249C176.523 259.96 176.878 260.493 177.766 261.026L239.745 296.935C240.632 297.468 242.053 297.646 243.296 297.646L249.512 245.028Z" />
  <path
     id="path98"
     fill="#64C29C"
     d="M179.01 254.627L176.701 254.272V259.427C176.701 260.138 177.056 260.671 177.944 261.204L179.01 261.915V254.627Z" />
  <path
     id="path100"
     fill="#007948"
     d="M240.455 297.291C242.053 298.002 244.54 297.824 246.316 296.935V288.224H240.455V297.291Z" />
  <path
     id="path102"
     fill="white"
     d="M239.922 291.957L177.943 256.049C176.167 254.983 176.345 253.205 178.476 252.138L220.742 227.785C222.696 226.54 225.892 226.54 227.668 227.429L289.647 263.337C291.422 264.404 291.245 266.182 289.114 267.248L246.848 291.602C244.717 292.846 241.698 293.024 239.922 291.957Z" />
  <path
     id="path104"
     fill="#C9EEE0"
     d="M238.857 286.447L187.356 256.583C185.936 255.694 186.113 254.272 187.712 253.205L210.265 240.406C211.864 239.517 214.527 239.339 215.948 240.228L267.449 270.093C268.87 270.982 268.692 272.404 267.094 273.47L244.54 286.269C242.764 287.336 240.278 287.336 238.857 286.447Z" />
  <path
     id="path106"
     fill="#FFC2B0"
     d="M222.874 226.541L222.163 230.807C221.631 234.54 221.631 238.095 222.519 241.828L223.229 245.561C223.584 247.694 225.36 249.294 227.491 249.65C229.089 250.005 230.688 248.761 230.865 247.161L231.931 237.917C231.931 237.917 234.239 240.939 235.483 240.939C236.548 240.939 234.239 231.696 231.576 226.541C229.089 221.563 222.874 226.541 222.874 226.541Z" />
  <path
     id="path108"
     fill="#FFC2B0"
     d="M244.007 158.457L237.436 171.612C235.838 174.811 234.95 178.189 234.772 181.566L231.931 226.718L223.229 226.541L218.967 175.878C218.789 174.278 218.967 172.678 219.144 171.256L223.762 145.658L244.007 158.457Z" />
  <path
     id="path110"
     fill="#007948"
     d="M237.791 295.335L232.641 288.58L177.944 256.938C176.168 255.872 174.747 253.205 174.747 250.894V206.098L171.551 202.009L174.57 200.232C175.103 199.876 175.813 199.876 176.701 200.41L238.679 236.318C240.455 237.384 241.876 240.051 241.876 242.362V291.246C241.876 292.491 241.343 293.557 240.633 293.913L237.791 295.335Z" />
  <path
     id="path112"
     fill="#007948"
     d="M199.965 269.737L196.058 267.426L174.747 230.274V205.92L171.551 201.832L174.57 200.054C175.103 199.699 175.813 199.699 176.701 200.232L238.679 236.14C239.567 236.673 240.455 237.74 240.988 238.806L199.965 269.737Z" />
  <path
     id="path114"
     fill="#64C29C"
     d="M172.972 203.787L171.551 202.009L174.57 200.232C175.103 199.876 175.813 199.876 176.701 200.41L177.766 201.121L172.972 203.787Z" />
  <path
     id="path116"
     fill="#007948"
     d="M239.212 236.673C240.633 237.74 241.699 239.873 241.876 241.828L235.838 245.383L232.997 240.406L239.212 236.673Z" />
  <path
     id="path118"
     fill="#64C29C"
     d="M235.66 237.918L173.682 202.009C171.906 200.943 170.485 202.009 170.485 204.498V253.383C170.485 255.694 171.906 258.361 173.682 259.427L235.66 295.335C237.436 296.402 238.857 295.335 238.857 292.847V243.962C238.857 241.651 237.436 238.984 235.66 237.918Z" />
  <path
     id="path120"
     fill="#FFC2B0"
     d="M266.206 247.339L265.141 249.472C264.075 251.783 262.122 253.916 259.99 255.16L253.775 258.893C251.821 260.138 249.513 260.138 247.559 259.071C247.559 259.071 247.382 259.071 247.382 258.893C245.428 257.649 245.251 254.805 246.849 253.205L253.242 246.628C253.242 246.628 249.69 249.472 248.625 248.228C247.914 247.339 252.177 243.428 255.373 243.25C258.57 243.073 261.766 240.584 261.766 240.584L266.206 247.339Z" />
  <path
     id="path122"
     fill="#C0CCEB"
     d="M249.868 98.0174C249.868 98.0174 226.249 123.793 216.836 147.258C216.836 147.258 224.828 161.835 244.718 167.523C264.43 173.212 249.868 98.0174 249.868 98.0174Z" />
  <path
     id="path124"
     fill="#A1AED0"
     d="M240.1 166.101L244.007 129.126L234.95 163.79C236.548 164.501 238.324 165.39 240.1 166.101Z" />
  <path
     id="path126"
     fill="#C9EEE0"
     d="M147.221 36.1553C137.454 36.1553 129.462 28.156 129.462 18.3791C129.462 8.60211 137.454 0.602783 147.221 0.602783C156.989 0.602783 164.98 8.60211 164.98 18.3791C164.98 28.156 156.989 36.1553 147.221 36.1553ZM147.221 4.51356C139.585 4.51356 133.369 10.7353 133.369 18.3791C133.369 26.0229 139.585 32.2446 147.221 32.2446C154.858 32.2446 161.073 26.0229 161.073 18.3791C161.073 10.7353 154.858 4.51356 147.221 4.51356Z" />
  <path
     id="path128"
     fill="#64C29C"
     d="M506.128 164.145C499.202 164.145 493.519 158.457 493.519 151.524C493.519 144.592 499.202 138.903 506.128 138.903C513.054 138.903 518.737 144.592 518.737 151.524C518.737 158.457 513.054 164.145 506.128 164.145ZM506.128 142.814C501.333 142.814 497.426 146.725 497.426 151.524C497.426 156.324 501.333 160.235 506.128 160.235C510.923 160.235 514.83 156.324 514.83 151.524C514.83 146.725 510.923 142.814 506.128 142.814Z" />
  <path
     id="path130"
     fill="#64C29C"
     d="M93.412 391.86L84.8877 374.439L102.291 365.907L110.816 383.328L93.412 391.86ZM90.0378 376.217L95.1878 386.705L105.666 381.55L100.515 371.062L90.0378 376.217Z" />
  <path
     id="path132"
     fill="#64C29C"
     d="M345.588 122.193L337.063 104.773L354.467 96.2401L362.991 113.661L345.588 122.193ZM342.214 106.55L347.364 117.038L357.841 111.883L352.691 101.395L342.214 106.55Z" />
  <path
     id="path134"
     fill="#64C29C"
     d="M70.0139 285.668L62.0454 289.59L65.963 297.566L73.9315 293.644L70.0139 285.668Z" />
  <path
     id="path136"
     fill="#2E2E2E"
     d="M383.236 27.801L335.643 0.425543C334.755 -0.107746 333.867 -0.107746 333.156 0.24778L328.539 2.91422C328.539 2.91422 330.493 3.62528 331.736 4.15856V38.8223C331.736 41.6665 333.512 44.8663 335.643 46.1106L381.105 72.4195V76.5081L385.723 73.8416C386.433 73.3083 386.966 72.2418 386.966 70.8197V35.0893C386.966 32.2451 385.367 29.0454 383.236 27.801Z" />
  <path
     id="path138"
     fill="#4A4A4A"
     d="M378.441 75.9749L331.025 48.5993C328.894 47.3549 327.118 44.1552 327.118 41.311V5.93605C327.118 3.09183 328.894 1.84749 331.025 3.09183L378.441 30.4674C380.572 31.7118 382.348 34.9115 382.348 37.7557V73.1307C382.348 75.9749 380.572 77.2192 378.441 75.9749Z" />
  <path
     id="path140"
     fill="white"
     d="M347.008 36.3337C347.008 38.4669 345.587 39.1779 343.811 38.1114C342.035 37.0448 340.615 34.556 340.615 32.6006C340.615 30.4674 342.035 29.7564 343.811 30.823C345.587 31.8896 347.008 34.3783 347.008 36.3337Z" />
  <path
     id="path142"
     fill="white"
     d="M356.598 42.0222C356.598 44.1554 355.177 44.8664 353.401 43.7998C351.625 42.7333 350.205 40.2446 350.205 38.2893C350.205 36.1562 351.625 35.4451 353.401 36.5117C355.177 37.4005 356.598 39.8891 356.598 42.0222Z" />
  <path
     id="path144"
     fill="white"
     d="M366.365 47.7102C366.365 49.8433 364.944 50.5543 363.168 49.4878C361.392 48.4213 359.972 45.9327 359.972 43.9774C359.972 41.8443 361.392 41.1333 363.168 42.1998C364.944 43.0886 366.365 45.5772 366.365 47.7102Z" />
  <path
     id="path146"
     fill="#64C29C"
     d="M54.8751 328.399L8.34686 301.557C7.45892 301.024 6.57097 301.024 5.86062 301.379L1.4209 303.868C1.4209 303.868 3.37438 304.579 4.6175 305.112V339.065C4.6175 341.909 6.2158 345.109 8.34686 346.175L52.9216 371.951V375.862L57.539 373.195C58.2493 372.662 58.7821 371.773 58.7821 370.173V335.51C58.6045 332.843 57.0062 329.643 54.8751 328.399Z" />
  <path
     id="path148"
     fill="#C9EEE0"
     d="M50.2576 375.862L3.72937 348.842C1.5983 347.597 0 344.398 0 341.731V307.067C0 304.223 1.5983 302.979 3.72937 304.223L50.2576 331.065C52.3887 332.31 53.987 335.51 53.987 338.176V372.84C54.1646 375.684 52.3887 376.928 50.2576 375.862Z" />
  <path
     id="path150"
     fill="white"
     d="M19.357 336.932C19.357 338.887 17.9363 339.776 16.1604 338.709C14.3846 337.643 12.9639 335.332 12.9639 333.199C12.9639 331.243 14.3846 330.355 16.1604 331.421C17.9363 332.488 19.357 334.976 19.357 336.932Z" />
  <path
     id="path152"
     fill="white"
     d="M28.9469 342.442C28.9469 344.398 27.5262 345.286 25.7503 344.22C23.9744 343.153 22.5537 340.842 22.5537 338.709C22.5537 336.754 23.9744 335.865 25.7503 336.932C27.5262 337.998 28.9469 340.487 28.9469 342.442Z" />
  <path
     id="path154"
     fill="white"
     d="M38.5373 347.953C38.5373 349.909 37.1166 350.797 35.3407 349.731C33.5648 348.664 32.144 346.353 32.144 344.22C32.144 342.265 33.5648 341.376 35.3407 342.442C37.1166 343.509 38.5373 345.998 38.5373 347.953Z" />
</svg>
