<svg width="409" height="281" viewBox="0 0 409 281" fill="none" xmlns="http://www.w3.org/2000/svg">
<g clip-path="url(#clip0_2_3)">
<path d="M357.526 59.2436H357.468L324.391 73.3646L279.134 92.6851C278.957 92.7595 278.767 92.7983 278.576 92.7993C278.384 92.8002 278.194 92.7634 278.016 92.6909L231.324 73.3242L197.434 59.2667L197.382 59.2436H197.325C196.79 59.2442 196.277 59.4569 195.899 59.8349C195.521 60.2129 195.308 60.7255 195.308 61.2601V148.832C195.308 149.366 195.521 149.879 195.899 150.257C196.277 150.635 196.79 150.848 197.325 150.848H357.526C358.061 150.848 358.574 150.635 358.952 150.257C359.33 149.879 359.542 149.366 359.543 148.832V61.2601C359.542 60.7255 359.33 60.2129 358.952 59.8349C358.574 59.4569 358.061 59.2442 357.526 59.2436Z" fill="white"/>
<path d="M357.67 59.8198C357.611 59.8198 357.554 59.8018 357.505 59.7682L277.82 4.28583C277.577 4.11778 277.289 4.02796 276.994 4.02846C276.699 4.02897 276.411 4.11976 276.169 4.28864L197.058 59.7676C196.995 59.8111 196.918 59.8281 196.843 59.8148C196.768 59.8015 196.701 59.759 196.657 59.6965C196.614 59.6341 196.596 59.5569 196.609 59.4818C196.622 59.4067 196.665 59.3398 196.727 59.2958L275.839 3.8169C276.177 3.5805 276.58 3.45343 276.993 3.45275C277.406 3.45207 277.81 3.57782 278.149 3.81311L357.835 59.2953C357.885 59.3303 357.923 59.3806 357.943 59.4386C357.963 59.4967 357.963 59.5595 357.945 59.6181C357.927 59.6766 357.89 59.7277 357.84 59.764C357.791 59.8003 357.731 59.8198 357.67 59.8198Z" fill="#3F3D56"/>
<path d="M201.579 61.7867L277.072 5.84931L353.139 65.7667L280.962 108.544L241.776 99.6145L201.579 61.7867Z" fill="#E6E6E6"/>
<path d="M245.084 134.966H207.788C207.326 134.967 206.883 134.784 206.555 134.458C206.228 134.132 206.044 133.689 206.043 133.227C206.043 132.765 206.226 132.321 206.552 131.994C206.878 131.667 207.321 131.483 207.783 131.482H245.084C245.546 131.481 245.99 131.664 246.317 131.991C246.644 132.317 246.829 132.76 246.829 133.222C246.83 133.684 246.647 134.127 246.321 134.454C245.994 134.781 245.551 134.966 245.089 134.966H245.084Z" fill="#63FF7E"/>
<path d="M221.169 127.477H207.788C207.326 127.477 206.883 127.294 206.556 126.968C206.229 126.642 206.045 126.199 206.044 125.737C206.044 125.275 206.227 124.832 206.553 124.505C206.879 124.178 207.321 123.993 207.783 123.992H221.169C221.398 123.992 221.625 124.037 221.837 124.124C222.048 124.211 222.241 124.339 222.403 124.5C222.565 124.662 222.694 124.854 222.782 125.065C222.87 125.276 222.915 125.503 222.915 125.732C222.916 125.961 222.871 126.187 222.784 126.399C222.696 126.611 222.568 126.803 222.406 126.965C222.245 127.127 222.053 127.255 221.841 127.343C221.63 127.431 221.403 127.476 221.174 127.477H221.169Z" fill="#63FF7E"/>
<path d="M278.134 92.9428C277.851 92.9431 277.57 92.8881 277.308 92.7809L230.748 73.4665V13.0092C230.749 12.4746 230.961 11.962 231.34 11.584C231.718 11.206 232.23 10.9933 232.765 10.9927H322.086C322.621 10.9933 323.133 11.206 323.511 11.584C323.889 11.962 324.102 12.4746 324.103 13.0092V73.5087L324.015 73.5461L278.986 92.7715C278.716 92.8848 278.427 92.9431 278.134 92.9428Z" fill="white"/>
<path d="M278.134 93.0867C277.832 93.0871 277.532 93.0285 277.253 92.9143L230.604 73.5627V13.0092C230.605 12.4364 230.833 11.8872 231.238 11.4822C231.643 11.0772 232.192 10.8493 232.765 10.8487H322.086C322.659 10.8493 323.208 11.0772 323.613 11.4822C324.018 11.8872 324.246 12.4364 324.247 13.0092V73.6038L279.043 92.9039C278.755 93.0248 278.446 93.087 278.134 93.0867ZM231.18 73.1779L277.472 92.3816C277.904 92.5568 278.388 92.5539 278.817 92.3736L323.671 73.2235V13.0092C323.67 12.5891 323.503 12.1864 323.206 11.8894C322.909 11.5924 322.506 11.4253 322.086 11.4248H232.765C232.345 11.4253 231.942 11.5924 231.645 11.8894C231.348 12.1864 231.181 12.5891 231.18 13.0092L231.18 73.1779Z" fill="#3F3D56"/>
<path d="M357.094 59.2436H357.036L323.959 73.3646L278.702 92.6851C278.525 92.7595 278.335 92.7983 278.143 92.7993C277.952 92.8002 277.761 92.7634 277.584 92.6909L230.892 73.3242L197.002 59.2667L196.95 59.2436H196.893C196.358 59.2442 195.845 59.4569 195.467 59.8349C195.089 60.2129 194.876 60.7255 194.876 61.2601V148.832C194.876 149.366 195.089 149.879 195.467 150.257C195.845 150.635 196.358 150.848 196.893 150.848H357.094C357.629 150.848 358.141 150.635 358.519 150.257C358.897 149.879 359.11 149.366 359.111 148.832V61.2601C359.11 60.7255 358.897 60.2129 358.519 59.8349C358.141 59.4569 357.629 59.2442 357.094 59.2436ZM358.534 148.832C358.534 149.214 358.383 149.58 358.112 149.85C357.842 150.12 357.476 150.272 357.094 150.272H196.893C196.51 150.272 196.144 150.12 195.874 149.85C195.604 149.58 195.452 149.214 195.452 148.832V61.2601C195.452 60.8876 195.597 60.5298 195.855 60.2614C196.113 59.9929 196.466 59.8347 196.838 59.8198L230.892 73.9465L277.362 93.2238C277.865 93.4284 278.429 93.4253 278.929 93.2151L323.959 73.9897L357.152 59.8198C357.523 59.8358 357.874 59.9945 358.132 60.2627C358.389 60.531 358.534 60.8882 358.534 61.2601V148.832Z" fill="#3F3D56"/>
<path d="M270.886 33.5919H239.191C238.58 33.591 237.995 33.3478 237.563 32.9157C237.132 32.4836 236.889 31.898 236.889 31.2873C236.889 30.6767 237.132 30.091 237.563 29.659C237.995 29.2269 238.58 28.9837 239.191 28.9828H270.886C271.496 28.9837 272.082 29.2269 272.514 29.659C272.945 30.091 273.187 30.6767 273.187 31.2873C273.187 31.898 272.945 32.4836 272.514 32.9157C272.082 33.3478 271.496 33.591 270.886 33.5919Z" fill="#63FF7E"/>
<path d="M254.462 23.7977H239.191C238.58 23.7977 237.994 23.5549 237.561 23.1227C237.129 22.6905 236.886 22.1043 236.886 21.4931C236.886 20.8819 237.129 20.2958 237.561 19.8636C237.994 19.4314 238.58 19.1886 239.191 19.1886H254.462C255.074 19.1886 255.66 19.4314 256.092 19.8636C256.524 20.2958 256.767 20.8819 256.767 21.4931C256.767 22.1043 256.524 22.6905 256.092 23.1227C255.66 23.5549 255.074 23.7977 254.462 23.7977Z" fill="#63FF7E"/>
<path d="M301.13 56.6371H252.724C252.114 56.6362 251.528 56.393 251.097 55.9609C250.665 55.5288 250.423 54.9432 250.423 54.3325C250.423 53.7219 250.665 53.1362 251.097 52.7042C251.528 52.2721 252.114 52.0289 252.724 52.028H301.13C301.741 52.0289 302.327 52.2721 302.758 52.7042C303.19 53.1362 303.432 53.7219 303.432 54.3325C303.432 54.9432 303.19 55.5288 302.758 55.9609C302.327 56.393 301.741 56.6362 301.13 56.6371Z" fill="#CCCCCC"/>
<path d="M301.13 67.2955H252.724C252.113 67.2955 251.527 67.0527 251.094 66.6205C250.662 66.1883 250.419 65.6022 250.419 64.991C250.419 64.3798 250.662 63.7936 251.094 63.3614C251.527 62.9292 252.113 62.6864 252.724 62.6864H301.13C301.742 62.6864 302.328 62.9292 302.76 63.3614C303.193 63.7936 303.436 64.3798 303.436 64.991C303.436 65.6022 303.193 66.1883 302.76 66.6205C302.328 67.0527 301.742 67.2955 301.13 67.2955Z" fill="#CCCCCC"/>
<path d="M356.2 81.9917C368.305 81.9917 378.119 72.1809 378.119 60.0787C378.119 47.9765 368.305 38.1657 356.2 38.1657C344.095 38.1657 334.282 47.9765 334.282 60.0787C334.282 72.1809 344.095 81.9917 356.2 81.9917Z" fill="#63FF7E"/>
<path d="M354.112 69.329L347.552 60.8957L351.367 57.9292L354.473 61.9222L364.966 50.8476L368.475 54.1712L354.112 69.329Z" fill="white"/>
<path d="M110.936 189.589C110.554 189.027 110.299 188.387 110.191 187.716C110.083 187.045 110.123 186.358 110.309 185.704C110.495 185.049 110.822 184.444 111.267 183.93C111.712 183.416 112.265 183.006 112.886 182.728L111.46 166.259L119.014 170.353L119.21 185.364C119.607 186.438 119.596 187.62 119.18 188.687C118.763 189.753 117.97 190.63 116.95 191.151C115.93 191.671 114.755 191.8 113.646 191.512C112.538 191.225 111.574 190.54 110.936 189.589Z" fill="#9F616A"/>
<path d="M112.367 179.171L112.306 179.015L103.972 157.967L102.65 118.068L102.872 118.052C104.499 117.936 106.134 118.146 107.679 118.67C109.224 119.194 110.648 120.021 111.869 121.104C113.09 122.186 114.082 123.501 114.787 124.972C115.492 126.443 115.896 128.04 115.976 129.669L117.198 151.121L120.663 178.71L112.367 179.171Z" fill="#E5E5E5"/>
<path d="M59.1313 267.142L63.922 270.178L77.9168 253.149L70.8461 248.667L59.1313 267.142Z" fill="#9F616A"/>
<path d="M58.9008 264.803L68.3357 270.783C69.9302 271.794 71.0582 273.397 71.4709 275.239C71.8835 277.081 71.5475 279.011 70.5366 280.606L70.4127 280.801L54.9651 271.01L58.9008 264.803Z" fill="#2F2E41"/>
<path d="M104.425 275.304L110.097 275.303L112.796 253.429L104.424 253.429L104.425 275.304Z" fill="#9F616A"/>
<path d="M102.978 273.452L114.149 273.452H114.149C116.037 273.452 117.848 274.202 119.183 275.536C120.518 276.871 121.268 278.681 121.268 280.569V280.8L102.978 280.801L102.978 273.452Z" fill="#2F2E41"/>
<path d="M88.3746 183.651L101.729 263.956C101.729 263.956 99.1017 270.522 103.042 271.398C106.983 272.273 115.74 270.522 115.74 270.522C115.74 270.522 118.367 263.956 114.426 263.081L106.983 179.174L88.3746 183.651Z" fill="#2F2E41"/>
<path d="M96.2557 185.083L87.0042 222.633L63.4176 256.873C63.4176 256.873 54.6607 257.748 59.477 262.564C64.2932 267.379 66.4824 267.816 66.4824 267.816C66.4824 267.816 73.9258 266.941 73.4879 263.439L102.486 229.314L115.959 183.77L96.2557 185.083Z" fill="#2F2E41"/>
<path d="M88.1822 188.39L85.948 175.643C82.5833 172.127 88.9407 163.435 89.6496 162.49L89.2336 157.085C88.8792 157.024 88.5549 156.848 88.3117 156.583C86.2245 154.455 86.3647 146.059 86.3717 145.702L84.0683 121.748L89.799 118.405L104.291 117.938L111.369 124.071L118.185 186.681L117.942 186.695L88.1822 188.39Z" fill="#E5E5E5"/>
<path d="M93.1977 192.861C92.6136 192.513 92.113 192.041 91.7313 191.478C91.3495 190.915 91.0958 190.275 90.988 189.604C90.8802 188.932 90.921 188.246 91.1075 187.592C91.294 186.938 91.6216 186.332 92.0674 185.819L83.8198 171.492L92.3959 172.013L98.9131 185.538C99.7266 186.344 100.216 187.42 100.289 188.563C100.362 189.706 100.013 190.835 99.3087 191.738C98.6042 192.641 97.5931 193.253 96.4668 193.46C95.3405 193.668 94.1773 193.454 93.1977 192.861Z" fill="#9F616A"/>
<path d="M85.8938 179.464L78.7794 162.976L77.5903 129.295C77.5497 128.189 77.8131 127.092 78.352 126.125C78.891 125.157 79.6848 124.356 80.6473 123.808L88.8548 118.794L90.6255 154.201L95.9217 175.363L85.8938 179.464Z" fill="#E5E5E5"/>
<path d="M98.6625 114.744C104.286 114.744 108.845 110.186 108.845 104.563C108.845 98.9407 104.286 94.3827 98.6625 94.3827C93.0386 94.3827 88.4795 98.9407 88.4795 104.563C88.4795 110.186 93.0386 114.744 98.6625 114.744Z" fill="#9F616A"/>
<path d="M102.344 89.5311C92.0891 86.5744 89.1781 95.0724 89.1781 95.0724C84.2348 98.3512 87.3297 102.462 87.3297 102.462C86.0824 102.739 88.5763 110.036 89.4079 109.852C89.8517 109.753 90.9926 111.115 91.9604 112.406C92.2922 112.406 92.6233 112.438 92.949 112.501L91.0714 105.557C91.0714 105.557 97.4004 104.587 99.3408 101.539C101.197 98.6229 107.309 97.7022 109.048 99.6501C109.151 99.0901 109.362 98.5553 109.668 98.0756C109.906 97.7111 110.216 97.3999 110.58 97.1615C109.042 90.628 102.344 89.5311 102.344 89.5311Z" fill="#2F2E41"/>
<path opacity="0.2" d="M90.7902 141.301L90.222 161.567L97.2743 176.428L90.7902 140.762" fill="black"/>
<path d="M176.746 281H0.462686C0.339974 281 0.222288 280.951 0.135517 280.864C0.0487468 280.778 0 280.66 0 280.537C0 280.415 0.0487468 280.297 0.135517 280.21C0.222288 280.124 0.339974 280.075 0.462686 280.075H176.746C176.869 280.075 176.987 280.124 177.073 280.21C177.16 280.297 177.209 280.415 177.209 280.537C177.209 280.66 177.16 280.778 177.073 280.864C176.987 280.951 176.869 281 176.746 281Z" fill="#63FF7E"/>
<path d="M152.379 21.87C152.23 21.7816 152.058 21.7371 151.885 21.7417C151.711 21.7462 151.542 21.7996 151.397 21.8957C151.252 21.9919 151.138 22.1268 151.066 22.2852C150.994 22.4435 150.969 22.6188 150.992 22.791L151.707 28.0289C151.717 28.1061 151.711 28.1845 151.691 28.2597C151.669 28.3338 151.631 28.4024 151.581 28.4615L147.581 33.1999C147.447 33.3525 147.369 33.5455 147.358 33.748C147.347 33.9505 147.405 34.1507 147.522 34.3164L147.526 34.3225C147.638 34.49 147.803 34.6152 147.994 34.6783C148.186 34.7413 148.393 34.7385 148.582 34.6703L151.471 33.6899C151.567 33.6582 151.67 33.6532 151.768 33.6753C151.867 33.6974 151.957 33.7459 152.03 33.8156C152.085 33.866 152.128 33.9271 152.158 33.9951C152.187 34.0632 152.203 34.1366 152.202 34.2108L152.315 44.5026C152.317 44.6516 152.354 44.7981 152.424 44.9294C152.495 45.0607 152.596 45.1728 152.72 45.2562C152.843 45.3393 152.984 45.3917 153.132 45.4089C153.279 45.426 153.429 45.4075 153.568 45.3549L175.132 37.1096C175.295 37.0478 175.437 36.9413 175.541 36.8024C175.646 36.6636 175.71 36.498 175.724 36.3247C175.739 36.1514 175.705 35.9774 175.625 35.8228C175.545 35.6682 175.424 35.5392 175.274 35.4506L174.98 35.2763L152.379 21.87ZM151.357 22.7406C151.344 22.6373 151.359 22.5321 151.402 22.4371C151.445 22.3421 151.514 22.2612 151.601 22.2037C151.688 22.1461 151.79 22.1142 151.894 22.1116C151.999 22.109 152.101 22.1358 152.191 22.1889L174.785 35.5912L175.086 35.7695C175.175 35.8229 175.248 35.9003 175.295 35.9929C175.343 36.0855 175.363 36.1896 175.354 36.2933C175.345 36.397 175.308 36.4962 175.245 36.5795C175.183 36.6628 175.098 36.7269 175.001 36.7645L153.437 45.0097C153.353 45.0414 153.264 45.0526 153.175 45.0421C153.086 45.0317 153.001 45 152.928 44.9498C152.854 44.8996 152.793 44.8324 152.751 44.7538C152.709 44.6752 152.686 44.5875 152.685 44.4983L152.572 34.2065C152.572 34.1047 152.555 34.0036 152.521 33.9077L174.475 36.4297C174.561 36.4404 174.648 36.4208 174.72 36.3744C174.793 36.328 174.847 36.2576 174.874 36.1755C174.9 36.0933 174.897 36.0045 174.864 35.9245C174.832 35.8445 174.773 35.7782 174.697 35.7372C174.679 35.7269 174.659 35.7185 174.639 35.712L152.078 28.1829C152.084 28.1148 152.082 28.0462 152.072 27.9786L151.357 22.7406Z" fill="#F1F1F1"/>
<path d="M152.379 21.87C152.23 21.7816 152.058 21.7371 151.885 21.7417C151.711 21.7462 151.542 21.7996 151.397 21.8957C151.252 21.9919 151.138 22.1268 151.066 22.2852C150.994 22.4435 150.969 22.6188 150.992 22.791L151.707 28.0289C151.717 28.1061 151.711 28.1845 151.691 28.2597C151.669 28.3338 151.631 28.4024 151.581 28.4615L147.581 33.1999C147.447 33.3525 147.369 33.5455 147.358 33.748C147.347 33.9505 147.405 34.1507 147.522 34.3164L147.526 34.3225C147.638 34.49 147.803 34.6152 147.994 34.6783C148.186 34.7413 148.393 34.7385 148.582 34.6703L151.471 33.6899C151.567 33.6582 151.67 33.6532 151.768 33.6753C151.867 33.6974 151.957 33.7459 152.03 33.8156C152.085 33.866 152.128 33.9271 152.158 33.9951C152.187 34.0632 152.203 34.1366 152.202 34.2108L152.315 44.5026C152.317 44.6516 152.354 44.7981 152.424 44.9294C152.495 45.0607 152.596 45.1728 152.72 45.2562C152.843 45.3393 152.984 45.3917 153.132 45.4089C153.279 45.426 153.429 45.4075 153.568 45.3549L175.132 37.1096C175.295 37.0478 175.437 36.9413 175.541 36.8024C175.646 36.6636 175.71 36.498 175.724 36.3247C175.739 36.1514 175.705 35.9774 175.625 35.8228C175.545 35.6682 175.424 35.5392 175.274 35.4506L174.98 35.2763L152.379 21.87ZM151.357 22.7406C151.344 22.6373 151.359 22.5321 151.402 22.4371C151.445 22.3421 151.514 22.2612 151.601 22.2037C151.688 22.1461 151.79 22.1142 151.894 22.1116C151.999 22.109 152.101 22.1358 152.191 22.1889L174.785 35.5912L175.086 35.7695C175.175 35.8229 175.248 35.9003 175.295 35.9929C175.343 36.0855 175.363 36.1896 175.354 36.2933C175.345 36.397 175.308 36.4962 175.245 36.5795C175.183 36.6628 175.098 36.7269 175.001 36.7645L153.437 45.0097C153.353 45.0414 153.264 45.0526 153.175 45.0421C153.086 45.0317 153.001 45 152.928 44.9498C152.854 44.8996 152.793 44.8324 152.751 44.7538C152.709 44.6752 152.686 44.5875 152.685 44.4983L152.572 34.2065C152.572 34.1047 152.555 34.0036 152.521 33.9077C152.472 33.7696 152.391 33.6454 152.284 33.5458C152.269 33.5312 152.253 33.5177 152.237 33.5041L152.236 33.5026C152.115 33.4026 151.97 33.3352 151.816 33.3068C151.661 33.2785 151.502 33.29 151.353 33.3404L148.462 34.3219C148.348 34.3632 148.224 34.3649 148.109 34.3266C147.994 34.2883 147.895 34.2122 147.829 34.1108L147.827 34.1078C147.756 34.0087 147.721 33.8885 147.727 33.7669C147.734 33.6452 147.781 33.5294 147.862 33.4385L151.863 28.7001C151.906 28.6504 151.943 28.5962 151.974 28.5382L151.975 28.5372C152.005 28.4817 152.028 28.4233 152.046 28.3629C152.063 28.3042 152.074 28.2439 152.078 28.1829C152.084 28.1148 152.082 28.0462 152.072 27.9786L151.357 22.7406Z" fill="#63FF7E"/>
<path d="M152.078 28.1829L174.639 35.712C174.659 35.7185 174.679 35.7269 174.697 35.7372C174.773 35.7782 174.832 35.8445 174.864 35.9245C174.897 36.0045 174.9 36.0933 174.873 36.1754C174.847 36.2576 174.793 36.3279 174.72 36.3744C174.648 36.4208 174.561 36.4403 174.475 36.4296L152.521 33.9077L152.133 33.8635L152.176 33.4969L152.236 33.5026L152.237 33.504L174.517 36.0615L151.975 28.5372L151.974 28.5382L151.876 28.5046L151.993 28.1541L152.078 28.1829Z" fill="#63FF7E"/>
<path d="M403.977 0.128817L381.376 13.5351L381.083 13.7094C380.933 13.7979 380.811 13.9269 380.731 14.0816C380.652 14.2362 380.617 14.4102 380.632 14.5835C380.647 14.7568 380.71 14.9224 380.815 15.0612C380.92 15.2001 381.062 15.3066 381.224 15.3684L402.789 23.6137C402.928 23.6663 403.077 23.6848 403.225 23.6676C403.372 23.6505 403.514 23.5981 403.637 23.5149C403.76 23.4316 403.862 23.3194 403.932 23.1882C404.003 23.0569 404.04 22.9104 404.041 22.7614L404.154 12.4695C404.154 12.3954 404.169 12.3219 404.199 12.2539C404.229 12.1859 404.272 12.1248 404.326 12.0743C404.399 12.0047 404.49 11.9562 404.588 11.9341C404.687 11.912 404.789 11.917 404.885 11.9487L407.774 12.9291C407.964 12.9973 408.171 13.0001 408.362 12.937C408.554 12.874 408.719 12.7488 408.831 12.5812L408.835 12.5752C408.952 12.4094 409.009 12.2093 408.999 12.0068C408.988 11.8043 408.91 11.6112 408.776 11.4587L404.775 6.72025C404.725 6.66123 404.688 6.59257 404.665 6.51853C404.645 6.44331 404.64 6.3649 404.65 6.28767L405.364 1.04974C405.388 0.877577 405.362 0.702285 405.291 0.54395C405.219 0.385615 405.104 0.250651 404.959 0.154524C404.815 0.0583969 404.646 0.00499403 404.472 0.000446501C404.298 -0.00410103 404.127 0.0403958 403.977 0.128817ZM404.999 0.999435L404.285 6.23736C404.275 6.30501 404.273 6.37356 404.278 6.44171C404.283 6.50269 404.294 6.56301 404.311 6.62166C404.328 6.68209 404.352 6.74053 404.381 6.79598L404.383 6.79702C404.413 6.85493 404.451 6.9092 404.493 6.95883L408.494 11.6972C408.575 11.7882 408.623 11.904 408.629 12.0256C408.636 12.1473 408.601 12.2675 408.53 12.3666L408.528 12.3696C408.461 12.471 408.363 12.547 408.248 12.5853C408.133 12.6237 408.008 12.622 407.894 12.5807L405.003 11.5992C404.855 11.5488 404.695 11.5372 404.541 11.5656C404.386 11.594 404.242 11.6614 404.121 11.7614L404.12 11.7629C404.103 11.7765 404.087 11.79 404.073 11.8046C403.966 11.9042 403.884 12.0284 403.836 12.1665C403.802 12.2624 403.784 12.3635 403.784 12.4653L403.671 22.7571C403.67 22.8463 403.648 22.9339 403.605 23.0125C403.563 23.0911 403.503 23.1584 403.429 23.2086C403.355 23.2588 403.27 23.2905 403.182 23.3009C403.093 23.3113 403.003 23.3002 402.92 23.2685L381.355 15.0232C381.258 14.9857 381.174 14.9216 381.111 14.8383C381.049 14.755 381.011 14.6558 381.002 14.5521C380.994 14.4484 381.014 14.3443 381.062 14.2517C381.109 14.1591 381.182 14.0816 381.271 14.0282L381.572 13.85L404.165 0.447702C404.255 0.394545 404.358 0.367737 404.462 0.370342C404.567 0.372946 404.668 0.404861 404.755 0.462432C404.842 0.520003 404.911 0.600901 404.954 0.695868C404.997 0.790835 405.013 0.896055 404.999 0.999435Z" fill="#63FF7E"/>
<path d="M404.363 6.41289L404.48 6.76337L404.383 6.79701L404.381 6.79596L381.839 14.3204L404.12 11.7628L404.121 11.7614L404.181 11.7557L404.224 12.1223L403.836 12.1665L381.881 14.6884C381.796 14.6991 381.709 14.6796 381.636 14.6332C381.564 14.5867 381.509 14.5164 381.483 14.4342C381.457 14.3521 381.46 14.2633 381.492 14.1833C381.524 14.1033 381.584 14.037 381.659 13.996C381.678 13.9857 381.697 13.9773 381.717 13.9708L404.278 6.44171L404.363 6.41289Z" fill="#63FF7E"/>
<path d="M210.581 187.447C210.426 187.526 210.297 187.647 210.208 187.796C210.119 187.946 210.074 188.117 210.077 188.291C210.081 188.464 210.134 188.634 210.23 188.779C210.325 188.924 210.46 189.039 210.618 189.111L215.428 191.307C215.498 191.34 215.562 191.386 215.615 191.443C215.665 191.502 215.704 191.57 215.727 191.644L217.595 197.557C217.652 197.751 217.773 197.921 217.939 198.038C218.104 198.155 218.304 198.214 218.507 198.203L218.514 198.203C218.716 198.198 218.91 198.126 219.065 197.998C219.221 197.87 219.329 197.693 219.373 197.496L220.088 194.531C220.113 194.433 220.163 194.344 220.234 194.272C220.306 194.201 220.395 194.151 220.493 194.126C220.565 194.107 220.64 194.103 220.713 194.114C220.786 194.126 220.856 194.152 220.919 194.192L229.68 199.596C229.807 199.675 229.951 199.722 230.099 199.732C230.248 199.743 230.397 199.717 230.534 199.657C230.67 199.598 230.789 199.506 230.883 199.391C230.976 199.275 231.04 199.139 231.07 198.994L235.624 176.365C235.659 176.194 235.644 176.018 235.583 175.855C235.522 175.692 235.416 175.55 235.277 175.445C235.138 175.34 234.973 175.276 234.8 175.26C234.626 175.245 234.452 175.279 234.297 175.358L233.993 175.513L210.581 187.447ZM210.771 188.776C210.676 188.732 210.595 188.663 210.538 188.576C210.481 188.488 210.449 188.387 210.447 188.283C210.445 188.178 210.472 188.076 210.526 187.986C210.579 187.896 210.657 187.824 210.75 187.776L234.155 175.847L234.466 175.688C234.559 175.641 234.663 175.621 234.767 175.63C234.871 175.64 234.97 175.678 235.053 175.741C235.136 175.804 235.199 175.889 235.236 175.986C235.273 176.083 235.282 176.189 235.262 176.291L230.708 198.92C230.691 199.007 230.652 199.089 230.596 199.158C230.54 199.228 230.468 199.283 230.386 199.318C230.304 199.354 230.215 199.369 230.126 199.362C230.037 199.356 229.95 199.328 229.874 199.282L221.113 193.877C221.027 193.822 220.932 193.783 220.833 193.761L234.698 176.556C234.753 176.49 234.783 176.406 234.782 176.32C234.782 176.234 234.751 176.15 234.696 176.084C234.641 176.018 234.564 175.973 234.479 175.958C234.394 175.942 234.307 175.957 234.231 175.999C234.213 176.009 234.195 176.021 234.179 176.034L215.757 191.075C215.702 191.034 215.643 190.999 215.58 190.971L210.771 188.776Z" fill="#F1F1F1"/>
<path d="M210.581 187.447C210.426 187.526 210.297 187.647 210.208 187.796C210.119 187.946 210.074 188.117 210.077 188.291C210.081 188.464 210.134 188.634 210.23 188.779C210.325 188.924 210.46 189.039 210.618 189.111L215.428 191.307C215.498 191.34 215.562 191.386 215.615 191.443C215.665 191.502 215.704 191.57 215.727 191.644L217.595 197.557C217.652 197.751 217.773 197.921 217.939 198.038C218.104 198.155 218.304 198.214 218.507 198.203L218.514 198.203C218.716 198.198 218.91 198.126 219.065 197.998C219.221 197.87 219.329 197.693 219.373 197.496L220.088 194.531C220.113 194.433 220.163 194.344 220.234 194.272C220.306 194.201 220.395 194.151 220.493 194.126C220.565 194.107 220.64 194.103 220.713 194.114C220.786 194.126 220.856 194.152 220.919 194.192L229.68 199.596C229.807 199.675 229.951 199.722 230.099 199.732C230.248 199.743 230.397 199.717 230.534 199.657C230.67 199.598 230.789 199.506 230.883 199.391C230.976 199.275 231.04 199.139 231.07 198.994L235.624 176.365C235.659 176.194 235.644 176.018 235.583 175.855C235.522 175.692 235.416 175.55 235.277 175.445C235.138 175.34 234.973 175.276 234.8 175.26C234.626 175.245 234.452 175.279 234.297 175.358L233.993 175.513L210.581 187.447ZM210.771 188.776C210.676 188.732 210.595 188.663 210.538 188.576C210.481 188.488 210.449 188.387 210.447 188.283C210.445 188.178 210.472 188.076 210.526 187.986C210.579 187.896 210.657 187.824 210.75 187.776L234.155 175.847L234.466 175.688C234.559 175.641 234.663 175.621 234.767 175.63C234.871 175.64 234.97 175.678 235.053 175.741C235.136 175.804 235.199 175.889 235.236 175.986C235.273 176.083 235.282 176.189 235.262 176.291L230.708 198.92C230.691 199.007 230.652 199.089 230.596 199.158C230.54 199.228 230.468 199.283 230.386 199.318C230.304 199.354 230.215 199.369 230.126 199.362C230.037 199.356 229.95 199.328 229.874 199.282L221.113 193.877C221.027 193.822 220.932 193.783 220.833 193.761C220.69 193.728 220.542 193.73 220.4 193.768C220.38 193.772 220.36 193.778 220.34 193.785L220.338 193.785C220.189 193.834 220.055 193.92 219.948 194.035C219.842 194.151 219.766 194.292 219.729 194.444L219.014 197.411C218.988 197.53 218.923 197.636 218.829 197.713C218.735 197.789 218.618 197.832 218.497 197.834L218.494 197.834C218.372 197.841 218.252 197.807 218.152 197.736C218.053 197.666 217.98 197.563 217.947 197.446L216.079 191.533C216.06 191.471 216.034 191.41 216.001 191.353L216.001 191.352C215.97 191.297 215.933 191.246 215.891 191.199C215.851 191.153 215.806 191.111 215.757 191.075C215.702 191.034 215.643 190.999 215.58 190.971L210.771 188.776Z" fill="#63FF7E"/>
<path d="M215.757 191.075L234.179 176.034C234.195 176.021 234.213 176.009 234.231 175.999C234.307 175.957 234.394 175.942 234.479 175.958C234.564 175.973 234.641 176.018 234.696 176.084C234.751 176.15 234.782 176.234 234.782 176.32C234.783 176.406 234.753 176.49 234.698 176.556L220.833 193.761L220.588 194.065L220.301 193.833L220.338 193.785L220.34 193.785L234.409 176.324L216.001 191.352L216.001 191.353L215.921 191.418L215.687 191.132L215.757 191.075Z" fill="#63FF7E"/>
</g>
<defs>
<clipPath id="clip0_2_3">
<rect width="409" height="281" fill="white"/>
</clipPath>
</defs>
</svg>
