
<svg width="589" height="520" viewBox="0 0 589 520" fill="none" xmlns="http://www.w3.org/2000/svg">
<g clip-path="url(#clip0)">
<path d="M434.749 458.967L581.707 373.824C586.544 371.038 588.794 367.256 588.626 363.338V341.998L580.451 351.581C579.916 351.229 579.38 350.877 578.798 350.54L278.01 177.467C266.069 170.594 248.021 169.813 237.688 175.844L92.7208 259.794L83.6431 249.798V270.662C83.4134 275.362 86.7047 280.383 93.5168 284.256L394.366 457.36C406.307 464.233 424.355 464.953 434.749 458.967Z" fill="#AAD6BB"/>
<path d="M278.01 177.467C266.069 170.594 248.021 169.813 237.688 175.844L92.7208 259.794L83.6431 249.798V270.662C83.4134 275.362 86.7047 280.383 93.5168 284.256L394.366 457.36C401.033 460.982 408.486 462.916 416.073 462.993L415.782 256.747L278.01 177.467Z" fill="#AAD6BB"/>
<path d="M90.5932 239.541L237.551 154.398C247.884 148.412 265.932 149.147 277.872 155.929L578.722 329.124C590.662 335.997 591.979 346.422 581.646 352.392L434.688 437.536C424.355 443.521 406.307 442.802 394.367 435.928L93.5324 262.809C81.5768 255.936 80.2756 245.527 90.5932 239.541Z" fill="#D6E5DF"/>
<path d="M434.749 439.801L581.707 354.658C587.019 351.596 589.238 347.31 588.504 342.962C588.243 346.498 585.978 349.836 581.584 352.377L434.627 437.52C424.294 443.506 406.246 442.786 394.305 435.913L93.5322 262.809C87.7458 259.487 84.4699 255.324 83.7963 251.236C83.4442 256.012 86.7661 261.141 93.6394 265.014L394.413 438.194C406.353 445.052 424.401 445.787 434.749 439.801Z" fill="white"/>
<path d="M101.921 242.893L243.2 161.087C250.854 156.632 264.294 157.168 273.173 162.281L569.675 332.92C578.554 338.033 579.518 345.778 571.849 350.218L430.57 432.039C422.916 436.479 409.476 435.943 400.613 430.83L104.095 260.237C95.2165 255.078 94.2521 247.332 101.921 242.893Z" fill="#3B3F3D"/>
<path d="M440.337 0L448.144 25.6104L468.137 39.3571L452.966 45.5415L457.513 70.9682L440.337 48.8481L423.161 51.129L427.708 30.9529L412.538 7.27134L432.53 16.594L440.337 0Z" fill="#E8A200"/>
<path d="M403.215 12.6293L412.537 7.27148L426.942 13.9917C426.942 13.9917 426.942 23.6817 426.942 23.9114C424.843 24.2178 422.726 24.3916 420.605 24.4318C420.207 24.4931 403.215 12.6293 403.215 12.6293Z" fill="#025B3B"/>
<path d="M457.512 70.9681L448.19 76.3259L443.597 50.8992C443.597 50.8992 448.113 46.123 448.098 46.123L453.18 46.9956L457.512 70.9681Z" fill="#025B3B"/>
<path d="M431.014 5.35742L438.821 30.9678L458.798 44.7145L443.643 50.8989L448.19 76.3103L431.014 54.2055L413.839 56.4864L418.37 36.3103L403.215 12.6288L423.207 21.9514L431.014 5.35742Z" fill="#56BA7E"/>
<path d="M448.19 76.3257L443.598 50.8989L458.753 44.7757L438.852 30.9984L431.014 5.35742L423.207 21.9514L403.215 12.6288L404.608 14.8025L423.865 23.7883L430.739 9.18444L437.643 31.8251L455.921 44.393L442.143 50.0264L446.43 73.9529L448.19 76.3257Z" fill="white"/>
<path d="M431.014 5.35783L440.337 0L448.144 25.6104L438.821 30.9682L431.014 5.35783Z" fill="#025B3B"/>
<path d="M468.136 39.357L458.798 44.7148L438.821 30.9682L448.144 25.6104L468.136 39.357Z" fill="#025B3B"/>
<path d="M504.034 36.4639L511.856 62.0743L531.833 75.8362L516.678 82.0054L521.225 107.432L504.034 85.3119L486.858 87.5928L491.405 67.4168L476.25 43.7352L496.242 53.0578L504.034 36.4639Z" fill="#E8A200"/>
<path d="M466.896 49.0932L476.219 43.7354L490.655 50.5168C490.655 50.5168 490.655 60.2068 490.655 60.4365C488.555 60.7423 486.438 60.9161 484.317 60.9569C483.904 60.8957 466.896 49.0932 466.896 49.0932Z" fill="#025B3B"/>
<path d="M521.225 107.433L511.887 112.79L507.294 87.3636C507.294 87.3636 511.872 82.6641 511.856 82.6641L516.938 83.5366L521.225 107.433Z" fill="#025B3B"/>
<path d="M494.711 41.8213L502.518 67.4317L522.51 81.1783L507.355 87.3628L511.887 112.79L494.711 90.6694L477.535 92.9503L482.082 72.7742L466.927 49.0926L486.904 58.4152L494.711 41.8213Z" fill="#56BA7E"/>
<path d="M511.887 112.79L507.295 87.3634L522.45 81.2402L502.457 67.4629L494.65 41.8525L486.843 58.4465L466.896 49.0933L468.29 51.267L487.547 60.2528L494.451 45.6489L501.355 68.2896L519.633 80.8728L505.856 86.5062L510.127 110.433L511.887 112.79Z" fill="white"/>
<path d="M494.711 41.8217L504.034 36.4639L511.856 62.0743L502.518 67.4321L494.711 41.8217Z" fill="#025B3B"/>
<path d="M531.833 75.8362L522.51 81.1787L502.518 67.432L511.856 62.0742L531.833 75.8362Z" fill="#025B3B"/>
<path d="M405.342 66.498L413.15 92.0932L433.127 105.855L417.972 112.04L422.518 137.451L405.342 115.346L388.167 117.612L392.713 97.451L377.543 73.7541L397.535 83.0767L405.342 66.498Z" fill="#E8A200"/>
<path d="M368.22 79.1117L377.543 73.7539L391.887 80.4742C391.887 80.4742 391.887 90.1642 391.887 90.3938C389.787 90.6996 387.67 90.8734 385.549 90.9143C385.212 90.9143 368.22 79.1117 368.22 79.1117Z" fill="#025B3B"/>
<path d="M422.503 137.451L413.18 142.809L408.588 117.397C408.588 117.397 413.104 112.621 413.088 112.621L418.171 113.478L422.503 137.451Z" fill="#025B3B"/>
<path d="M396.004 71.8408L403.827 97.4512L423.804 111.213L408.649 117.398L413.195 142.809L396.004 120.689L378.829 122.97L383.375 102.809L368.22 79.1122L388.197 88.4348L396.004 71.8408Z" fill="#56BA7E"/>
<path d="M413.195 142.809L408.603 117.382L423.758 111.259L403.781 97.4815L395.974 71.8711L388.151 88.465L368.174 79.1424L369.567 81.3162L388.825 90.3173L395.698 75.7287L402.602 98.3235L420.972 110.891L407.195 116.525L411.481 140.467L413.195 142.809Z" fill="white"/>
<path d="M396.004 71.8406L405.342 66.498L413.149 92.0932L403.827 97.451L396.004 71.8406Z" fill="#025B3B"/>
<path d="M433.126 105.856L423.804 111.214L403.827 97.4516L413.149 92.0938L433.126 105.856Z" fill="#025B3B"/>
<path d="M469.04 102.947L476.847 128.573L496.839 142.32L481.684 148.504L486.231 173.916L469.04 151.811L451.864 154.092L456.41 133.916L441.255 110.219L461.232 119.557L469.04 102.947Z" fill="#E8A200"/>
<path d="M431.917 115.576L441.255 110.218L455.66 116.938C455.66 116.938 455.66 126.628 455.66 126.858C453.556 127.164 451.434 127.338 449.307 127.378C448.909 127.378 431.917 115.576 431.917 115.576Z" fill="#025B3B"/>
<path d="M486.23 173.915L476.892 179.272L472.3 153.861C472.3 153.861 476.892 149.085 476.8 149.085L481.898 149.942L486.23 173.915Z" fill="#025B3B"/>
<path d="M459.717 108.305L467.524 133.915L487.516 147.677L472.346 153.862L476.893 179.273L459.717 157.168L442.541 159.434L447.088 139.273L431.917 115.576L451.91 124.899L459.717 108.305Z" fill="#56BA7E"/>
<path d="M476.893 179.273L472.3 153.861L487.47 147.738L467.478 133.961L459.671 108.351L451.864 124.945L431.917 115.576L433.311 117.75L452.568 126.736L459.441 112.147L466.345 134.788L484.623 147.356L470.846 152.989L475.117 176.931L476.893 179.273Z" fill="white"/>
<path d="M459.717 108.305L469.039 102.947L476.847 128.573L467.524 133.916L459.717 108.305Z" fill="#025B3B"/>
<path d="M496.839 142.319L487.516 147.677L467.524 133.915L476.847 128.572L496.839 142.319Z" fill="#025B3B"/>
<path d="M532.752 139.426L540.559 165.036L560.551 178.783L545.381 184.967L549.927 210.379L532.752 188.274L515.576 190.555L520.122 170.379L504.952 146.697L524.945 156.02L532.752 139.426Z" fill="#E8A200"/>
<path d="M495.629 152.04L504.952 146.697L519.357 153.418C519.357 153.418 519.357 163.092 519.357 163.322C517.257 163.628 515.141 163.801 513.019 163.842C512.621 163.796 495.629 152.04 495.629 152.04Z" fill="#025B3B"/>
<path d="M549.927 210.379L540.605 215.736L536.012 190.325C536.012 190.325 540.528 185.549 540.513 185.549L545.595 186.406L549.927 210.379Z" fill="#025B3B"/>
<path d="M523.429 144.769L531.236 170.379L551.213 184.141L536.058 190.325L540.605 215.737L523.429 193.632L506.238 195.898L510.784 175.737L495.629 152.04L515.606 161.363L523.429 144.769Z" fill="#56BA7E"/>
<path d="M540.605 215.737L536.013 190.325L551.168 184.202L531.191 170.425L523.383 144.814L515.576 161.408L495.584 152.086L496.977 154.26L516.235 163.245L523.108 148.657L529.997 171.297L548.274 183.865L534.497 189.514L538.845 213.395L540.605 215.737Z" fill="white"/>
<path d="M523.429 144.768L532.752 139.426L540.559 165.036L531.236 170.379L523.429 144.768Z" fill="#025B3B"/>
<path d="M560.551 178.783L551.213 184.141L531.236 170.379L540.558 165.036L560.551 178.783Z" fill="#025B3B"/>
<path d="M263.513 444.776C263.513 444.776 254.956 440.459 249.736 446.888C244.516 453.318 236.954 468.503 236.724 478.775C236.494 489.047 244.837 488.342 249.812 485.908C254.787 483.474 269.284 462.441 270.157 458.354C271.029 454.267 269.116 448.649 267.723 447.638C266.33 446.628 263.513 444.776 263.513 444.776Z" fill="#3B3F3D"/>
<path d="M265.381 442.71L265.779 451.589C265.823 452.509 265.614 453.424 265.174 454.234C264.734 455.044 264.08 455.717 263.284 456.181C261.265 457.279 258.927 457.641 256.671 457.207C250.211 456.166 249.644 454.329 249.185 445.45C248.726 436.571 265.381 442.71 265.381 442.71Z" fill="#AAD6BB"/>
<path d="M232.162 427.707C232.162 427.707 223.59 423.39 218.385 429.82C213.18 436.249 205.603 451.45 205.373 461.706C205.144 471.963 213.487 471.274 218.446 468.84C223.406 466.406 237.918 445.373 238.806 441.286C239.694 437.198 237.765 431.58 236.372 430.493C234.979 429.406 232.162 427.707 232.162 427.707Z" fill="#3B3F3D"/>
<path d="M234.03 425.656L234.428 434.519C234.474 435.442 234.264 436.359 233.82 437.17C233.377 437.98 232.719 438.652 231.917 439.112C229.903 440.208 227.571 440.571 225.319 440.137C218.859 439.096 218.278 437.259 217.818 428.381C217.359 419.502 234.03 425.656 234.03 425.656Z" fill="#AAD6BB"/>
<path d="M310.463 262.717C307.937 221.385 265.794 268.84 265.794 268.84L236.954 297.099L210.93 325.633C208.427 328.386 206.554 331.651 205.441 335.202C204.328 338.752 204.002 342.503 204.485 346.192L214.987 426.192C215.241 428.097 216.182 429.845 217.634 431.105C219.086 432.365 220.948 433.051 222.87 433.035C224.173 433.009 225.472 432.891 226.759 432.682C229.264 432.411 231.568 431.181 233.186 429.249C234.804 427.317 235.611 424.833 235.438 422.319L233.571 347.493L288.113 314.611C288.113 314.611 313.004 303.972 310.463 262.717Z" fill="#025B3B"/>
<path d="M341.829 278.439C339.288 237.184 297.145 284.562 297.145 284.562L268.305 312.836L242.281 341.37C239.772 344.12 237.895 347.385 236.779 350.936C235.663 354.487 235.336 358.239 235.821 361.929L246.46 441.868C246.714 443.772 247.656 445.518 249.108 446.775C250.56 448.033 252.423 448.716 254.344 448.695C255.651 448.683 256.956 448.57 258.247 448.359C260.751 448.084 263.052 446.852 264.67 444.921C266.287 442.99 267.096 440.508 266.927 437.995L265.059 365.312L319.541 330.287C319.541 330.287 344.432 319.694 341.829 278.439Z" fill="#025B3B"/>
<path d="M316.877 146.024C348.825 159.265 348.182 178.171 348.182 178.171C348.182 178.171 341.921 247.409 344.064 293.655C344.952 312.974 241.363 314.459 256.808 262.886C275.025 202.082 268.198 152.851 276.709 145.442C285.22 138.033 308.626 142.595 316.877 146.024Z" fill="#56BA7E"/>
<path d="M327.164 162.756C325.496 169.246 317 172.66 308.182 170.41C299.365 168.159 293.594 161.041 295.262 154.55C296.931 148.06 305.427 144.646 314.244 146.896C323.062 149.147 328.848 156.28 327.164 162.756Z" fill="#FFC2B0"/>
<path d="M314.382 170.532L308.504 176.916C308.125 177.323 307.84 177.808 307.669 178.337C307.497 178.865 307.442 179.425 307.509 179.977L311.55 214.91C311.657 215.893 311.383 216.879 310.785 217.666L298.14 234.214C298.014 234.381 297.845 234.51 297.65 234.587C297.455 234.664 297.243 234.685 297.037 234.649C296.831 234.612 296.639 234.52 296.482 234.381C296.326 234.242 296.211 234.062 296.15 233.862L289.323 212.201C289.032 211.389 289.032 210.502 289.323 209.69L301.431 177.956C301.693 177.263 301.751 176.509 301.6 175.783L299.824 167.363L314.382 170.532Z" fill="white"/>
<path d="M313.586 172.614C311.639 172.615 309.699 172.368 307.815 171.88C303.45 170.833 299.527 168.432 296.609 165.022C295.304 163.567 294.366 161.822 293.874 159.931C293.381 158.04 293.348 156.059 293.777 154.153C295.66 146.866 304.998 142.947 314.627 145.427C324.256 147.907 330.532 155.852 328.649 163.139C327.149 168.956 320.918 172.614 313.586 172.614ZM308.779 147.723C302.84 147.723 297.88 150.494 296.732 154.918C296.433 156.359 296.481 157.851 296.872 159.269C297.263 160.688 297.987 161.993 298.982 163.077C301.475 165.991 304.832 168.034 308.565 168.91C316.556 170.976 324.24 168.037 325.694 162.373C327.149 156.709 321.837 150.448 313.861 148.382C312.201 147.95 310.494 147.729 308.779 147.723Z" fill="white"/>
<path d="M304.08 144.569C304.08 144.569 304.355 145.855 303.804 155.974C303.636 159.158 314.78 162.097 317.581 159.25C320.383 156.403 319.311 153.372 320 142.549C320.689 131.726 304.08 144.569 304.08 144.569Z" fill="#FFC2B0"/>
<path d="M320.077 142.549C320.077 142.549 317.337 152.591 303.804 156.449L304.003 147.264L320.077 142.549Z" fill="#EA9C92"/>
<path d="M304.845 147.769C318.423 147.769 329.43 136.762 329.43 123.184C329.43 109.607 318.423 98.5996 304.845 98.5996C291.267 98.5996 280.26 109.607 280.26 123.184C280.26 136.762 291.267 147.769 304.845 147.769Z" fill="#FFC2B0"/>
<path d="M310.494 124.087C310.494 124.087 296.946 129.889 287.532 129.95C278.117 130.011 280.214 122.173 280.214 122.173L308.044 118.147L310.494 124.087Z" fill="#EA9C92"/>
<path d="M284.73 125.618C284.73 125.618 296.533 120.612 306.866 122.694C309.32 123.174 311.532 124.488 313.127 126.414C313.59 127.067 314.258 127.546 315.025 127.777C316.847 128.205 319.862 120.582 323.429 120.413C326.996 120.245 329.369 122.771 326.491 127.44C323.613 132.109 324.547 137.359 325.894 138.155C327.241 138.951 343.896 127.271 331.313 102.335C318.729 77.3977 284.363 91.5271 279.388 96.5787C279.388 96.5787 274.152 101.171 269.897 97.0839C269.897 97.0533 265.121 132.828 284.73 125.618Z" fill="#3B3F3D"/>
<path d="M330.272 228.734V247.44C330.271 248.499 330.05 249.547 329.623 250.517C329.196 251.487 328.573 252.357 327.792 253.073L289.323 288.114L293.701 294.788L346.636 260.069C347.809 259.221 348.791 258.135 349.516 256.882C350.241 255.629 350.694 254.238 350.846 252.798L354.459 218.079L330.272 228.734Z" fill="#FFC2B0"/>
<path d="M345.488 168.787C345.488 168.787 357.153 186.33 361.5 232.484C361.5 232.484 341.6 238.913 330.272 235.27C318.944 231.627 345.488 168.787 345.488 168.787Z" fill="#56BA7E"/>
<g style="mix-blend-mode:multiply" opacity="0.2">
<path d="M328.144 190.968C328.144 190.968 323.551 215.384 323.322 226.865C323.283 228.403 323.727 229.914 324.592 231.185C325.457 232.457 326.699 233.425 328.144 233.953V190.968Z" fill="#56BA7E"/>
</g>
<path d="M318.178 312.438L309.682 311.305L254.849 279.648C253.762 279.159 252.576 278.931 251.385 278.981C250.195 279.032 249.032 279.36 247.991 279.939L209.139 302.365L204.011 301.676V306.789C204.016 307.169 204.129 307.54 204.338 307.857C204.547 308.174 204.842 308.425 205.189 308.58L267.325 344.432C268.412 344.92 269.598 345.149 270.788 345.098C271.979 345.048 273.141 344.72 274.183 344.141L316.494 319.648C316.959 319.452 317.361 319.134 317.658 318.726C317.954 318.319 318.134 317.838 318.178 317.336V312.438Z" fill="#84D8A6"/>
<path d="M276.984 292.384L273.081 290.134H230.218L209.108 302.38L203.98 301.691V306.804C203.985 307.184 204.099 307.555 204.308 307.872C204.516 308.19 204.812 308.44 205.159 308.595L267.325 344.432C268.422 344.985 269.654 345.213 270.876 345.09L276.984 292.384Z" fill="#84D8A6"/>
<path d="M206.292 301.982L204.011 301.676V306.789C204.016 307.169 204.129 307.539 204.338 307.857C204.547 308.174 204.842 308.425 205.189 308.58L206.292 309.207V301.982Z" fill="#5793CE"/>
<path d="M267.891 344.768C269.812 345.387 271.895 345.256 273.723 344.401V335.706H267.891V344.768Z" fill="#84D8A6"/>
<path d="M267.325 339.365L205.128 303.483C203.368 302.473 203.597 300.697 205.618 299.534L247.93 275.041C248.972 274.464 250.135 274.139 251.326 274.091C252.517 274.043 253.702 274.274 254.788 274.765L317 310.754C318.745 311.78 318.53 313.556 316.494 314.719L274.183 339.074C273.141 339.653 271.979 339.981 270.788 340.032C269.598 340.082 268.412 339.854 267.325 339.365Z" fill="#D6E5DF"/>
<path d="M266.361 333.931L214.68 304.095C213.226 303.253 213.41 301.784 215.094 300.804L237.765 288.052C238.619 287.574 239.573 287.301 240.551 287.256C241.529 287.211 242.504 287.394 243.398 287.792L295.063 317.612C296.594 318.454 296.349 319.939 294.65 320.903L271.979 333.716C271.123 334.184 270.17 334.447 269.195 334.484C268.22 334.521 267.25 334.332 266.361 333.931Z" fill="#707774"/>
<path d="M250.394 273.922L249.751 278.224C249.204 281.876 249.303 285.597 250.042 289.215L250.807 292.981C251.013 294.025 251.529 294.983 252.289 295.729C253.048 296.474 254.015 296.973 255.063 297.16C255.458 297.232 255.863 297.221 256.253 297.13C256.644 297.038 257.012 296.867 257.333 296.627C257.655 296.388 257.924 296.084 258.123 295.736C258.322 295.388 258.448 295.002 258.492 294.604L259.518 285.419C259.518 285.419 261.86 288.48 262.992 288.48C264.125 288.48 261.737 279.295 259.165 274.106C256.594 268.917 250.394 273.922 250.394 273.922Z" fill="#FFC2B0"/>
<path d="M271.458 205.787L264.83 218.982C263.253 222.102 262.321 225.507 262.089 228.994L259.196 274.137L250.425 273.923L246.46 223.238C246.337 221.673 246.414 220.099 246.69 218.554L251.282 192.852L271.458 205.787Z" fill="#FFC2B0"/>
<path d="M265.228 342.809L260.008 336.012L205.22 304.279C204.25 303.577 203.457 302.658 202.907 301.594C202.357 300.531 202.064 299.353 202.051 298.156V253.288L199.005 249.231L201.959 247.516C202.291 247.33 202.669 247.242 203.049 247.264C203.429 247.286 203.794 247.416 204.102 247.639L266.192 283.598C267.165 284.298 267.96 285.216 268.513 286.28C269.066 287.344 269.362 288.522 269.376 289.721V338.584C269.438 339.081 269.364 339.586 269.161 340.044C268.959 340.502 268.637 340.897 268.228 341.187L265.228 342.809Z" fill="#56BA7E"/>
<path d="M227.34 317.092L223.498 314.826L202.066 277.719V253.334L199.005 249.231L201.959 247.516C202.291 247.33 202.669 247.242 203.049 247.264C203.429 247.286 203.794 247.416 204.102 247.639L266.192 283.598C267.218 284.263 268.03 285.209 268.534 286.322L227.34 317.092Z" fill="#56BA7E"/>
<path d="M200.337 251.053L198.944 249.231L201.898 247.516C202.23 247.33 202.608 247.242 202.988 247.264C203.368 247.286 203.733 247.416 204.041 247.639L205.128 248.282L200.337 251.053Z" fill="#56BA7E"/>
<path d="M266.713 283.995C268.208 285.344 269.138 287.209 269.315 289.215L263.192 292.721L260.283 287.669L266.713 283.995Z" fill="#56BA7E"/>
<path d="M263.192 285.312L201.102 249.353C199.342 248.343 197.918 249.353 197.918 251.757V300.605C197.932 301.803 198.228 302.982 198.781 304.045C199.334 305.109 200.129 306.028 201.102 306.728L263.192 342.671C264.952 343.697 266.376 342.671 266.376 340.268V291.42C266.359 290.224 266.063 289.048 265.51 287.987C264.957 286.927 264.163 286.01 263.192 285.312Z" fill="#D6E5DF"/>
<path d="M293.731 294.788L292.736 296.839C291.588 299.212 289.788 301.208 287.547 302.595L281.424 306.406C280.484 307 279.4 307.326 278.289 307.35C277.178 307.374 276.081 307.096 275.117 306.544L274.918 306.422C274.464 306.114 274.085 305.709 273.806 305.238C273.528 304.766 273.357 304.238 273.305 303.693C273.254 303.147 273.324 302.597 273.51 302.082C273.696 301.567 273.994 301.099 274.382 300.712L280.827 294.099C280.827 294.099 277.214 296.869 276.234 295.752C275.484 294.925 279.74 290.93 283 290.807C285.35 290.515 287.573 289.583 289.43 288.113L293.731 294.788Z" fill="#FFC2B0"/>
<path d="M277.382 145.305C277.382 145.305 253.747 171.022 244.225 194.597C244.225 194.597 252.308 209.155 272.086 214.88C291.864 220.605 277.382 145.305 277.382 145.305Z" fill="#56BA7E"/>
<g style="mix-blend-mode:multiply" opacity="0.2">
<path d="M267.631 213.349L271.458 176.35L262.441 211.007C264.126 211.884 265.859 212.666 267.631 213.349Z" fill="#56BA7E"/>
</g>
<path d="M295.078 140.115L288.726 138.37C288.726 138.37 291.787 143.146 296.196 144.356C300.605 145.565 301.309 141.83 301.309 141.83L295.078 140.115Z" fill="white"/>
<path d="M515.102 406.552L504.799 412.507C503.437 413.288 502.319 412.507 502.319 410.624C502.335 409.697 502.567 408.786 502.998 407.965C503.428 407.143 504.045 406.434 504.799 405.894L515.102 399.939C516.479 399.143 517.581 399.939 517.581 401.807C517.57 402.737 517.339 403.651 516.908 404.475C516.477 405.3 515.858 406.011 515.102 406.552Z" fill="#56BA7E"/>
<path d="M471.58 231.81L392.729 186.284C392.138 185.87 391.447 185.623 390.729 185.566C390.01 185.51 389.289 185.646 388.641 185.962L380.987 190.371L386.36 192.33V249.766C386.36 254.435 389.208 259.87 392.713 261.89L468.075 305.396V312.131L475.806 307.692C476.568 307.103 477.166 306.327 477.542 305.44C477.917 304.552 478.057 303.583 477.949 302.625V243.995C477.918 239.265 475.086 233.831 471.58 231.81Z" fill="#025B3B"/>
<path d="M463.835 311.857L384.937 266.361C381.431 264.34 378.584 258.906 378.584 254.237V195.607C378.584 190.938 381.431 188.78 384.937 190.8L463.835 236.311C467.34 238.332 470.188 243.751 470.188 248.42V307.065C470.142 311.734 467.294 313.816 463.835 311.857Z" fill="#56BA7E"/>
<path d="M465.718 235.408L386.866 189.82C386.172 189.294 385.316 189.024 384.445 189.057C383.574 189.091 382.742 189.426 382.09 190.004C383.091 189.939 384.087 190.191 384.937 190.724L463.835 236.311C467.341 238.332 470.188 243.751 470.188 248.42V307.065C470.25 307.894 470.147 308.727 469.884 309.515C469.621 310.304 469.204 311.032 468.657 311.657C470.708 311.458 472.147 309.453 472.147 306.162V247.532C472.071 242.848 469.223 237.429 465.718 235.408Z" fill="white"/>
<path d="M411.451 246.124C411.451 249.522 409.078 250.9 406.139 249.185C404.594 248.178 403.308 246.822 402.382 245.227C401.457 243.631 400.919 241.841 400.812 240C400.812 236.602 403.2 235.224 406.139 236.939C407.683 237.945 408.969 239.301 409.891 240.897C410.814 242.493 411.348 244.283 411.451 246.124Z" fill="white"/>
<path d="M427.57 255.43C427.57 258.829 425.197 260.191 422.258 258.492C420.713 257.484 419.427 256.128 418.502 254.533C417.576 252.938 417.038 251.148 416.931 249.307C416.931 245.909 419.319 244.531 422.258 246.245C423.802 247.252 425.088 248.608 426.011 250.204C426.933 251.799 427.467 253.59 427.57 255.43Z" fill="white"/>
<path d="M442.128 268.198C444.207 266.998 444.207 263.104 442.127 259.502C440.047 255.9 436.675 253.953 434.596 255.153C432.517 256.354 432.517 260.247 434.597 263.85C436.677 267.452 440.048 269.399 442.128 268.198Z" fill="white"/>
<path d="M370.333 374.742L470.019 317.184L463.651 313.51L363.965 371.068L370.333 374.742Z" fill="#84D8A6"/>
<path d="M439.694 357.964L490.165 328.818L483.812 325.144L433.326 354.29L439.694 357.964Z" fill="#84D8A6"/>
<path d="M415.201 372.108L431.565 362.663L425.197 358.989L408.833 368.434L415.201 372.108Z" fill="#56BA7E"/>
<path d="M390.479 386.376L406.843 376.931L400.49 373.257L384.11 382.702L390.479 386.376Z" fill="white"/>
<path d="M439.127 346.666L480.092 323L473.739 319.326L432.759 342.992L439.127 346.666Z" fill="white"/>
<path d="M389.116 375.538L430.08 351.887L423.727 348.213L382.748 371.864L389.116 375.538Z" fill="#84D8A6"/>
<path d="M419.441 324.975C420.589 325.556 421.859 325.859 423.146 325.859C424.433 325.859 425.702 325.556 426.85 324.975C428.901 323.781 428.901 321.914 426.85 320.689C425.704 320.101 424.434 319.794 423.146 319.794C421.857 319.794 420.587 320.101 419.441 320.689C417.405 321.868 417.405 323.781 419.441 324.975Z" fill="#56BA7E"/>
<path d="M408.358 331.373C409.509 331.955 410.781 332.258 412.07 332.258C413.36 332.258 414.632 331.955 415.783 331.373C417.834 330.195 417.834 328.312 415.783 327.087C414.632 326.506 413.36 326.203 412.07 326.203C410.781 326.203 409.509 326.506 408.358 327.087C406.307 328.266 406.307 330.195 408.358 331.373Z" fill="white"/>
<path d="M397.26 337.773C398.409 338.361 399.681 338.668 400.972 338.668C402.263 338.668 403.535 338.361 404.684 337.773C406.735 336.594 406.735 334.711 404.684 333.487C403.533 332.905 402.261 332.603 400.972 332.603C399.682 332.603 398.411 332.905 397.26 333.487C395.208 334.681 395.208 336.594 397.26 337.773Z" fill="#84D8A6"/>
<path d="M386.177 344.186C387.328 344.768 388.6 345.07 389.889 345.07C391.179 345.07 392.45 344.768 393.602 344.186C395.638 342.992 395.638 341.125 393.602 339.9C392.453 339.312 391.18 339.005 389.889 339.005C388.598 339.005 387.326 339.312 386.177 339.9C384.126 341.079 384.126 342.992 386.177 344.186Z" fill="#56BA7E"/>
<path d="M375.048 350.555C376.199 351.136 377.47 351.439 378.76 351.439C380.049 351.439 381.321 351.136 382.472 350.555C384.523 349.376 384.523 347.493 382.472 346.269C381.321 345.688 380.049 345.385 378.76 345.385C377.47 345.385 376.199 345.688 375.048 346.269C373.027 347.493 373.027 349.407 375.048 350.555Z" fill="white"/>
<path d="M168.282 238.469L185.059 228.779L178.538 225.014L161.76 234.704L168.282 238.469Z" fill="#56BA7E"/>
<path d="M144.906 251.971L161.699 242.281L155.162 238.516L138.385 248.206L144.906 251.971Z" fill="white"/>
<path d="M172.017 248.236L195.392 234.749L188.871 230.983L165.496 244.485L172.017 248.236Z" fill="white"/>
<path d="M155.239 257.941L165.495 252.017L158.959 248.251L148.718 254.175L155.239 257.941Z" fill="#84D8A6"/>
<path opacity="0.1" d="M49.8123 407.195C73.3156 407.195 92.3688 396.194 92.3688 382.625C92.3688 369.056 73.3156 358.056 49.8123 358.056C26.309 358.056 7.25586 369.056 7.25586 382.625C7.25586 396.194 26.309 407.195 49.8123 407.195Z" fill="#025B3B"/>
<path d="M99.625 355.989V341.998H96.9767C94.0429 337.292 89.9257 333.439 85.0364 330.823C65.5798 319.586 34.0452 319.586 14.6192 330.823C9.72889 333.443 5.6077 337.295 2.6636 341.998H0V355.913C0 363.291 4.83735 370.685 14.5886 376.318C34.0452 387.554 65.5798 387.554 85.0057 376.318C94.757 370.7 99.625 363.352 99.625 355.989Z" fill="#025B3B"/>
<path d="M49.8125 370.762C77.3232 370.762 99.625 357.884 99.625 341.998C99.625 326.112 77.3232 313.234 49.8125 313.234C22.3018 313.234 0 326.112 0 341.998C0 357.884 22.3018 370.762 49.8125 370.762Z" fill="#56BA7E"/>
<path d="M85.0362 362.342C65.5796 373.562 34.045 373.562 14.619 362.342C5.2658 356.953 0.459068 349.973 0.0763659 342.9C-0.336952 350.554 4.45447 358.3 14.5884 364.148C34.045 375.384 65.5796 375.384 85.0056 364.148C95.1701 358.316 99.9615 350.554 99.5023 342.9C99.1655 349.973 94.3588 356.953 85.0362 362.342Z" fill="white"/>
<path d="M25.8092 351.52C25.4453 351.359 25.1312 351.104 24.8996 350.781C24.668 350.458 24.5275 350.079 24.4927 349.683V330.945C24.4927 329.522 26.5133 328.358 28.9779 328.358C31.4425 328.358 33.4632 329.522 33.4632 330.961V346.498L78.5608 340.972C80.9795 340.681 83.3522 341.569 83.8727 342.962C84.3932 344.355 82.8317 345.748 80.4131 346.024L29.8964 352.147C28.6222 352.318 27.3256 352.138 26.1459 351.627L25.8092 351.52Z" fill="white"/>
<path opacity="0.1" d="M103.743 520L75.04 503.437L103.743 486.858L132.445 503.437L103.743 520Z" fill="#025B3B"/>
<path d="M132.445 484.638L103.743 501.201V468.059L132.445 451.496V484.638Z" fill="#025B3B"/>
<path d="M103.743 468.06L75.04 451.497L103.743 434.934L132.445 451.497L103.743 468.06Z" fill="#84D8A6"/>
<path d="M103.743 501.201L75.04 484.638V451.496L103.743 468.059V501.201Z" fill="#56BA7E"/>
<path opacity="0.1" d="M535.752 510.815L510.555 496.273L535.752 481.715L560.949 496.273L535.752 510.815Z" fill="#025B3B"/>
<path d="M560.949 479.771L535.752 494.313V465.213L560.949 450.67V479.771Z" fill="#025B3B"/>
<path d="M535.752 465.212L510.555 450.67L535.752 436.127L560.949 450.67L535.752 465.212Z" fill="#84D8A6"/>
<path d="M535.752 494.313L510.555 479.771V450.67L535.752 465.213V494.313Z" fill="#56BA7E"/>
</g>
<defs>
<clipPath id="clip0">
<rect width="588.703" height="520" fill="white"/>
</clipPath>
</defs>
</svg>
